<?xml version="1.0" encoding="UTF-8" standalone="no"?><!DOCTYPE svg PUBLIC "-//W3C//DTD SVG 1.1//EN" "http://www.w3.org/Graphics/SVG/1.1/DTD/svg11.dtd"><svg width="100%" height="100%" viewBox="0 0 737 520" version="1.1" xmlns="http://www.w3.org/2000/svg" xmlns:xlink="http://www.w3.org/1999/xlink" xml:space="preserve" xmlns:serif="http://www.serif.com/" style="fill-rule:evenodd;clip-rule:evenodd;stroke-linejoin:round;stroke-miterlimit:2;"><g><path d="M296.376,304.6c0.743,0.549 1.525,1.353 1.829,1.39c1.213,0.147 1.39,-0.079 1.457,-1.312c0.035,-0.647 -0.084,-0.636 -0.054,-8.093c0.002,-0.441 -0.097,-1.628 0.42,-2.197c0.744,-0.819 0.929,-0.692 14.246,-0.692c14.489,0 14.797,-0.133 15.222,0.729c0.423,0.857 0.369,0.911 0.369,25.157c-0,78.104 0.065,78.104 -0.483,86.006c-0.241,3.483 -0.094,5.463 -2.122,14.991c-1.529,7.186 -5.662,24.479 -28.095,34.765c-2.432,1.115 -13.829,6.341 -32.889,6.07c-5.016,-0.072 -27.57,0.247 -43.872,-12.013c-0.633,-0.476 -4.041,-3.039 -7.3,-6.688c-0.009,-0.01 -0.93,-0.73 -0.64,-2.055c0.218,-0.995 0.542,-0.776 2.603,-2.353c2.572,-1.967 19.3,-14.33 19.398,-14.371c2.594,-1.084 3.516,2.348 8.741,4.783c3.169,1.477 3.05,1.79 10.146,3.529c1.75,0.429 9.85,1.058 11.912,0.996c1.373,-0.041 28.532,0.462 31.361,-20.602c0.108,-0.802 0.254,-1.893 0.935,-10.07c0.013,-0.157 0.135,-1.621 -0.325,-1.944c-1.094,-0.77 -2.384,1.402 -5.219,3.62c-12.862,10.063 -25.486,9.651 -28.779,9.953c-9.642,0.883 -21.959,-1.699 -30.856,-6.807c-15.771,-9.055 -27.807,-25.344 -29.892,-45.835c-3.426,-33.673 11.231,-49.866 20.705,-58.066c6.407,-5.545 17.551,-11.556 30.115,-12.509c23.672,-1.795 40.49,13.057 40.49,13.057l0.576,0.562Zm-55.878,72.963c4.441,4.177 4.904,4.141 9.77,6.473c0.462,0.221 1.585,0.76 6.111,1.919c0.553,0.142 2.068,0.53 7.089,0.772c2.033,0.098 7.733,-0.52 7.927,-0.565c2.592,-0.605 9.547,-2.108 16.172,-8.484c0.371,-0.357 1.621,-1.56 4.1,-4.965c2.365,-3.247 4.819,-10.408 5.076,-14.108c0.498,-7.178 0.955,-14.393 -3.899,-23.214c-6.745,-12.259 -18.553,-14.788 -21.444,-15.471c-3.021,-0.714 -12.023,-0.865 -15.798,0.143c-9.092,2.427 -13.963,5.837 -19.487,13.254c-4.536,6.091 -6.162,16.035 -5.64,21.264c0.739,7.392 0.93,9.569 5.053,16.968c0.834,1.496 4.094,5.076 4.476,5.496l0.494,0.517Z" style="fill-opacity:1;"/><path d="M304.544,70.321l-10.996,-0.112c-1.523,-0.086 -1.504,-0.162 -3.019,-0.298c-2.289,-0.206 -2.272,0.275 -29.278,0.293c0.08,-9.073 -0.023,-34.035 0.057,-34.178c0.142,-0.255 0.563,-0.211 0.771,-0.416c0.197,-0.194 0.15,-0.601 0.395,-0.731c0.16,-0.085 29.061,0.102 34.028,-0.061c0.096,-0.068 0.178,-0.947 3.035,-1.023c6.157,-0.163 15.65,-0.02 17.011,0.001c0.236,0.004 2.004,0.03 2.879,0.651c0.11,0.078 0.047,0.294 0.157,0.372c1.974,0.062 1.971,0.1 11.966,0.02c2.774,0.024 2.826,-0.288 3.996,0.253c0.383,0.177 0.667,0.531 1.05,0.708c1.989,0.07 1.966,0.038 3.962,0.06c1.646,0.019 1.771,0.653 2.095,0.792c0.047,0.02 1.634,0.197 1.917,0.204c0.663,0.018 1.326,-0.018 1.989,0c1.834,0.236 1.833,0.192 1.98,0.255c0.388,0.166 0.691,0.498 1.079,0.664c1.336,0.1 2.539,0.202 2.913,0.355c0.396,0.162 0.71,0.493 1.113,0.636c0.297,0.105 0.645,-0.013 0.942,0.093c1.451,0.176 1.433,0.166 2.834,0.551l0.226,0.37c1.416,0.241 1.395,0.242 2.772,0.636c0.133,0.054 0.097,0.309 0.23,0.363c0.296,0.12 0.636,0.062 0.95,0.115c0.318,0.054 0.68,0.022 0.946,0.204c0.166,0.114 0.001,0.503 0.189,0.573c0.22,0.082 0.424,-0.298 0.656,-0.26c0.165,0.027 0.138,0.33 0.283,0.413c0.265,0.153 0.637,0.074 0.879,0.26c0.162,0.124 0.021,0.5 0.211,0.576c0.207,0.082 0.402,-0.286 0.621,-0.246c0.166,0.031 0.145,0.33 0.291,0.415c0.264,0.152 0.612,0.105 0.876,0.257c0.384,0.252 0.449,0.07 0.833,0.323c0.235,0.154 0.07,0.286 0.302,0.423c0.259,0.152 0.583,0.152 0.862,0.262c0.968,0.382 0.914,0.771 1.074,0.906l1.074,0.842c1.442,0.557 1.455,0.515 1.556,0.601c0.267,0.227 0.103,0.337 0.375,0.568l0.99,1.014c0.274,0.272 0.356,0.138 0.62,0.401c0.256,0.254 0.099,0.354 0.378,0.592c0.211,0.18 0.526,0.199 0.746,0.367c0.154,0.118 0.192,0.349 0.346,0.467c1.447,0.525 1.459,0.483 1.562,0.567c0.271,0.222 0.131,0.324 0.407,0.55c0.289,0.353 -0.08,0.482 0.206,0.83c0.263,0.322 0.455,-0.037 0.701,0.277c0.183,0.233 0.012,0.633 0.195,0.866c0.168,0.222 -0.021,0.6 0.147,0.822c0.149,0.197 0.466,0.166 0.685,0.279c0.77,0.396 0.942,0.966 0.985,1.01c0.268,0.262 0.358,0.106 0.624,0.367c0.27,0.265 0.115,0.359 0.387,0.623c0.174,0.168 0.455,0.193 0.629,0.361c0.176,0.17 0.218,0.448 0.39,0.623c0.16,0.163 0.433,0.189 0.581,0.363c0.17,0.2 0.166,0.513 0.337,0.713c0.321,1.629 0.257,1.643 0.346,1.755c0.153,0.193 0.552,0.012 0.712,0.2c0.193,0.225 0.008,0.641 0.201,0.866c0.16,0.187 0.551,0.011 0.71,0.198c0.618,0.723 -0.142,0.979 0.376,1.774c0.114,0.175 0.458,0.073 0.577,0.244c0.184,0.265 -0.237,0.428 1.458,3.766c0.82,1.615 1.124,1.374 1.188,1.514c0.059,0.127 -0.143,0.282 -0.088,0.41c0.07,0.16 0.321,0.177 0.409,0.328c0.163,0.281 -0.173,0.413 1.439,3.798c0.063,0.133 0.229,0.195 0.299,0.325c0.443,0.817 0.187,0.902 0.643,1.706c0.075,0.132 0.274,0.162 0.348,0.295c0.689,1.253 0.125,1.417 0.689,2.721c0.054,0.124 0.26,0.125 0.323,0.244c0.44,0.827 0.453,3.056 1.017,4.973c0.891,3.027 0.262,3.131 1.006,5.985c0.011,0.043 0.911,0.295 0.584,13.906c-0.081,3.362 -0.543,3.335 -0.745,4.097c-0.013,0.048 -0.009,0.049 -0.232,2.921c-0.155,2 -0.772,2.961 -0.813,3.095c-0.059,0.194 -0.414,3.617 -0.536,3.848c-0.074,0.139 -0.376,0.06 -0.423,0.21c-0.069,0.22 0.193,0.452 0.145,0.678c-0.029,0.136 -0.286,0.114 -0.342,0.242c-0.389,0.889 0.09,1.015 -0.381,1.868c-0.078,0.141 -0.38,0.068 -0.431,0.222c-0.069,0.206 0.198,0.424 0.145,0.635c-0.038,0.152 -0.295,0.148 -0.374,0.284c-0.155,0.265 -0.196,0.582 -0.299,0.872c-0.41,1.151 -0.595,1.049 -0.629,1.148c-0.204,0.593 -0.163,1.26 -0.418,1.833c-0.074,0.167 -0.443,0.055 -0.499,0.229c-0.068,0.212 0.279,0.412 0.226,0.628c-0.042,0.169 -0.353,0.124 -0.447,0.27c-0.163,0.253 -0.174,0.577 -0.28,0.858c-0.338,0.891 -0.547,0.734 -0.846,1.096c-0.181,0.22 -0.24,0.52 -0.401,0.755c-0.097,0.142 -0.288,0.21 -0.367,0.363c-0.271,0.526 -0.393,1.12 -0.669,1.644c-0.078,0.147 -0.289,0.188 -0.374,0.331c-0.151,0.255 -0.144,0.589 -0.313,0.831c-0.111,0.159 -0.422,0.134 -0.487,0.316c-0.063,0.174 0.242,0.346 0.185,0.522c-0.056,0.173 -0.357,0.15 -0.452,0.305c-0.154,0.252 -0.154,0.569 -0.252,0.847c-0.329,0.934 -0.597,0.724 -0.891,1.075c-0.182,0.217 -0.171,0.554 -0.347,0.776c-0.123,0.155 -0.407,0.136 -0.51,0.306c-0.155,0.255 -0.052,0.617 -0.207,0.872c-0.265,0.308 -0.052,0.406 -0.322,0.72c-0.233,0.271 -0.343,0.092 -0.596,0.347c-0.173,0.175 -0.202,0.463 -0.377,0.635c-0.173,0.17 -0.461,0.187 -0.634,0.357c-0.266,0.266 -0.106,0.36 -0.375,0.63c-0.265,0.265 -0.358,0.105 -0.625,0.371c-0.172,0.172 -0.203,0.454 -0.374,0.626c-0.171,0.172 -0.451,0.205 -0.623,0.377c-0.171,0.172 -0.205,0.452 -0.376,0.624c-0.171,0.172 -0.45,0.207 -0.621,0.379c-0.171,0.172 -0.206,0.45 -0.377,0.622c-0.171,0.172 -0.449,0.209 -0.62,0.381c-0.171,0.172 -0.205,0.449 -0.376,0.622c-0.171,0.173 -0.449,0.212 -0.62,0.385c-0.261,0.266 -0.107,0.355 -0.369,0.623c-0.265,0.271 -0.354,0.124 -0.623,0.39c-0.162,0.16 -0.188,0.433 -0.361,0.581l-1.56,0.583c-0.352,0.274 -0.473,-0.074 -0.827,0.201c-0.293,0.228 0.02,0.399 -0.255,0.642c-0.212,0.187 -0.58,0.11 -0.798,0.29c-0.171,0.141 -0.107,0.467 -0.282,0.603c-0.234,0.183 -0.592,0.124 -0.847,0.277c-0.149,0.089 -0.144,0.371 -0.311,0.417c-0.186,0.05 -0.369,-0.253 -0.549,-0.184c-0.18,0.069 -0.126,0.392 -0.284,0.502c-0.244,0.171 -0.59,0.136 -0.846,0.289c-0.152,0.091 -0.192,0.308 -0.333,0.415c-0.715,0.537 -0.901,0.145 -1.587,0.695c-0.163,0.13 -0.076,0.457 -0.248,0.574c-0.261,0.178 -0.611,0.162 -0.921,0.225c-0.307,0.063 -0.637,0.036 -0.927,0.153c-0.132,0.053 -0.149,0.259 -0.272,0.33c-0.811,0.468 -0.925,0.152 -1.729,0.616c-0.14,0.081 -0.161,0.295 -0.297,0.381c-0.782,0.492 -0.908,0.141 -1.708,0.608c-0.141,0.083 -0.126,0.364 -0.286,0.399c-0.213,0.047 -0.418,-0.271 -0.623,-0.197c-0.172,0.062 -0.07,0.404 -0.226,0.5c-0.271,0.168 -0.619,0.151 -0.932,0.215c-0.305,0.063 -0.63,0.051 -0.919,0.166c-0.13,0.051 -0.159,0.242 -0.281,0.31c-0.797,0.449 -0.901,0.167 -1.706,0.634c-0.151,0.087 -0.208,0.287 -0.348,0.39c-1.168,0.861 -1.311,0.567 -1.378,0.669c-0.133,0.203 0.018,0.485 0,0.727c-0.019,0.268 -0.637,0.935 -0.577,1.197c0.032,0.14 0.186,0.203 0.271,0.318c0.924,1.25 0.965,1.146 1.058,1.241c0.161,0.165 0.266,0.327 0.423,0.496c0.176,0.19 0.308,0.392 0.49,0.575c0.167,0.168 0.262,0.324 0.424,0.497c0.179,0.192 0.305,0.39 0.491,0.576c0.173,0.173 0.259,0.318 0.424,0.498c0.186,0.202 0.326,0.38 0.503,0.59c0.147,0.176 0.268,0.304 0.411,0.483c0.18,0.223 0.372,0.367 0.522,0.612c0.099,0.162 0.258,0.272 0.366,0.429c0.001,0.002 0.361,1.027 1.435,1.684c1.283,0.784 1.155,1.398 1.406,1.649c0.174,0.174 0.258,0.317 0.424,0.497c0.187,0.202 0.326,0.379 0.503,0.59c0.148,0.176 0.267,0.303 0.412,0.483c0.181,0.224 0.372,0.366 0.521,0.611c0.099,0.163 0.259,0.271 0.366,0.429c0.298,0.441 0.683,0.77 1.013,1.188c0.144,0.183 0.223,0.377 0.423,0.496c0.974,0.579 0.689,0.851 0.915,1.073c0.171,0.168 0.274,0.351 0.444,0.52c0.568,0.567 0.458,0.53 0.974,1.143c0.151,0.179 0.263,0.302 0.411,0.483c0.183,0.223 0.37,0.363 0.52,0.61c0.1,0.164 0.249,0.278 0.366,0.43c0.169,0.218 0.398,0.371 0.525,0.615c0.334,0.643 0.266,0.704 0.912,1.07c1.004,0.568 0.693,0.85 0.915,1.073c0.267,0.265 0.18,0.258 0.443,0.52c0.268,0.267 0.205,0.28 0.472,0.553c0.16,0.164 0.276,0.322 0.423,0.496c0.169,0.201 0.321,0.374 0.49,0.575c0.278,0.487 0.725,0.689 1.003,1.177c0.112,0.196 0.214,0.365 0.409,0.479c0.925,0.543 0.75,0.91 0.913,1.07c0.172,0.169 0.272,0.35 0.443,0.52c0.174,0.173 0.297,0.38 0.471,0.552c0.273,0.264 0.175,0.26 0.444,0.52l0.47,0.551c0.175,0.169 0.268,0.354 0.444,0.521c0.176,0.168 0.292,0.382 0.469,0.55l0.913,1.07c0.002,0.461 0.493,0.133 0.496,0.581c0.005,1.072 0.489,0.495 0.5,0.586c0.031,0.261 0.317,0.392 0.498,0.584c0.159,0.168 0.26,0.322 0.419,0.491c0.18,0.192 0.288,0.423 0.497,0.583c0.217,0.166 0.205,0.329 0.422,0.495l2.239,2.626c0.317,0.376 0.186,0.214 0.504,0.591c0.286,0.339 0.128,0.164 0.419,0.492c0.201,0.226 0.311,0.375 0.512,0.601l1.379,1.617c0.204,0.4 1.09,0.933 1.297,1.339c0.028,0.054 0.058,0.444 0.502,0.997c0.125,0.156 0.664,0.216 0.68,0.017c0.091,-1.114 -0.252,-0.816 0.523,-2.829c0.593,-1.539 0.404,-1.687 1.032,-2.554c0.107,-0.147 0.057,-0.222 0.152,-0.377c0.078,-0.126 0.205,-0.064 0.69,-1.709c0.066,-0.155 0.072,-0.188 0.139,-0.343c0.127,-0.297 0.308,-0.527 0.343,-0.848c0.016,-0.148 0.363,-1.259 0.693,-1.716c0.105,-0.145 0.059,-0.225 0.152,-0.377c0.486,-0.795 0.129,-0.931 0.681,-1.685c0.105,-0.144 0.048,-0.236 0.154,-0.38c0.285,-0.386 0.056,-0.462 0.344,-0.852c0.395,-0.535 0.13,-0.315 0.146,-0.36c0.081,-0.229 0.16,-0.257 0.201,-0.497c0.027,-0.156 0.112,-0.186 0.138,-0.342c0.031,-0.223 0.807,-2.231 1.036,-2.565c0.099,-0.144 0.054,-0.234 0.153,-0.378c0.29,-0.385 0.053,-0.465 0.344,-0.852c0.404,-0.537 0.129,-0.314 0.145,-0.359c0.083,-0.229 0.163,-0.257 0.201,-0.498c0.024,-0.154 0.113,-0.187 0.138,-0.341c0.2,-1.405 0.666,-1.198 1.037,-2.566c0.147,-0.246 0.012,-0.143 0.153,-0.378c0.248,-0.414 0.056,-0.475 0.344,-0.852c0.122,-0.16 0.075,-0.169 0.145,-0.358c0.084,-0.228 0.165,-0.257 0.201,-0.498c0.023,-0.152 0.115,-0.189 0.138,-0.341c0.204,-1.405 0.658,-1.202 1.037,-2.567c0.143,-0.241 0.015,-0.147 0.153,-0.379c0.247,-0.416 0.055,-0.479 0.344,-0.852c0.124,-0.16 0.074,-0.169 0.144,-0.358c0.085,-0.227 0.166,-0.258 0.201,-0.498c0.022,-0.15 0.115,-0.19 0.137,-0.34c0.208,-1.397 0.65,-1.199 1.037,-2.567c0.141,-0.238 0.018,-0.15 0.153,-0.38c0.244,-0.413 0.045,-0.471 0.344,-0.851c0.125,-0.159 0.073,-0.168 0.144,-0.357c0.086,-0.227 0.167,-0.258 0.201,-0.498c0.021,-0.149 0.116,-0.191 0.137,-0.34c0.21,-1.399 0.649,-1.209 1.037,-2.568c0.084,-0.143 0.069,-0.236 0.153,-0.38c0.241,-0.411 0.046,-0.473 0.344,-0.851c0.125,-0.158 0.072,-0.168 0.144,-0.357c0.086,-0.226 0.168,-0.259 0.201,-0.498c0.021,-0.148 0.117,-0.191 0.137,-0.339c0.212,-1.396 0.643,-1.203 1.037,-2.568c0.084,-0.143 0.07,-0.237 0.154,-0.38c0.244,-0.415 0.05,-0.48 0.344,-0.851c0.126,-0.159 0.069,-0.172 0.145,-0.36c0.087,-0.213 0.15,-0.246 0.191,-0.472c0.029,-0.162 0.071,-0.24 0.155,-0.383c0.472,-0.803 0.197,-0.899 0.689,-1.706c0.075,-0.124 0.083,-0.206 0.137,-0.34c0.117,-0.293 0.289,-0.539 0.343,-0.85c0.055,-0.317 0.178,-0.613 0.356,-0.88c0.108,-0.163 0.077,-0.174 0.144,-0.357c0.081,-0.218 0.153,-0.25 0.193,-0.479c0.029,-0.162 0.071,-0.239 0.154,-0.38c0.473,-0.806 0.2,-0.907 0.689,-1.706c0.076,-0.124 0.083,-0.205 0.137,-0.34c0.118,-0.293 0.29,-0.539 0.343,-0.85c0.054,-0.317 0.176,-0.614 0.356,-0.881c0.111,-0.164 0.076,-0.172 0.145,-0.358c0.081,-0.22 0.154,-0.247 0.193,-0.478c0.028,-0.163 0.07,-0.238 0.154,-0.38c0.156,-0.264 0.164,-0.602 0.344,-0.85c0.109,-0.151 0.08,-0.186 0.145,-0.359c0.08,-0.212 0.158,-0.273 0.2,-0.496c0.027,-0.144 0.083,-0.205 0.138,-0.341c0.118,-0.293 0.291,-0.538 0.343,-0.849c0.053,-0.317 0.173,-0.616 0.356,-0.881c0.115,-0.167 0.074,-0.168 0.145,-0.358c0.083,-0.224 0.155,-0.242 0.193,-0.478c0.027,-0.165 0.068,-0.237 0.154,-0.38c0.157,-0.264 0.162,-0.603 0.344,-0.85c0.113,-0.153 0.076,-0.186 0.147,-0.363c0.081,-0.204 0.143,-0.256 0.19,-0.47c0.035,-0.16 0.072,-0.242 0.155,-0.383c0.472,-0.802 0.211,-0.893 0.689,-1.706c0.072,-0.122 0.084,-0.21 0.138,-0.341c0.119,-0.291 0.285,-0.543 0.344,-0.852c0.06,-0.314 0.183,-0.607 0.354,-0.877c0.1,-0.157 0.082,-0.183 0.145,-0.358c0.076,-0.213 0.147,-0.256 0.193,-0.477c0.033,-0.161 0.07,-0.239 0.154,-0.381c0.474,-0.799 0.194,-0.901 0.68,-1.684c0.084,-0.135 0.076,-0.246 0.155,-0.383c0.464,-0.804 0.234,-0.883 0.689,-1.707c0.066,-0.119 0.087,-0.214 0.137,-0.34c0.116,-0.29 0.278,-0.548 0.345,-0.854c0.068,-0.311 0.193,-0.601 0.354,-0.876c0.086,-0.147 0.088,-0.198 0.145,-0.358c0.071,-0.2 0.141,-0.272 0.193,-0.478c0.039,-0.154 0.074,-0.243 0.154,-0.381c0.467,-0.804 0.219,-0.894 0.681,-1.685c0.077,-0.132 0.081,-0.249 0.155,-0.383c0.148,-0.267 0.216,-0.571 0.343,-0.849c0.445,-0.977 0.554,-0.924 0.828,-2.05c0.035,-0.144 0.481,-1.337 0.692,-1.713c0.075,-0.133 0.784,-1.017 1.325,-3.281c0.034,-0.144 0.488,-1.356 0.691,-1.711c0.077,-0.134 0.077,-0.246 0.154,-0.381c0.458,-0.809 0.245,-0.88 0.69,-1.707c0.063,-0.118 0.088,-0.217 0.138,-0.34c0.116,-0.29 0.275,-0.551 0.345,-0.855c0.034,-0.144 0.494,-1.367 0.691,-1.71c0.079,-0.137 0.08,-0.248 0.156,-0.386c0.147,-0.267 0.185,-0.584 0.342,-0.845c0.115,-0.191 0.082,-0.378 0.222,-0.55c0.165,-0.203 0.125,-0.516 0.29,-0.719l0.069,-0.17c2.48,0.984 3.538,1.393 5.994,2.431c1.886,0.798 1.939,0.607 3.845,1.34c0.131,0.05 0.19,0.216 0.314,0.281c0.274,0.144 0.575,0.228 0.864,0.337c1.057,0.397 1.017,0.451 2.027,0.922c2.26,1.055 14.612,5.883 15.887,6.381c1.834,0.717 1.87,0.606 2.024,0.679c0.491,0.232 0.619,0.572 1.11,0.804c-0.533,1.725 -0.639,1.672 -0.727,1.801c-0.092,0.134 -0.067,0.235 -0.151,0.374c-0.481,0.8 -0.201,0.899 -0.691,1.71c-0.075,0.124 -0.083,0.208 -0.138,0.342c-0.12,0.291 -0.288,0.541 -0.344,0.851c-0.057,0.316 -0.178,0.611 -0.355,0.878c-0.107,0.162 -0.079,0.175 -0.145,0.358c-0.079,0.22 -0.15,0.248 -0.193,0.478c-0.03,0.164 -0.068,0.237 -0.154,0.381c-0.157,0.263 -0.168,0.598 -0.343,0.85c-0.103,0.149 -0.081,0.195 -0.147,0.363c-0.077,0.197 -0.139,0.264 -0.19,0.47c-0.039,0.157 -0.073,0.244 -0.155,0.383c-0.466,0.793 -0.212,0.891 -0.68,1.684c-0.078,0.132 -0.08,0.249 -0.155,0.383c-0.149,0.267 -0.216,0.571 -0.343,0.849c-0.449,0.985 -0.56,0.93 -0.828,2.05c-0.434,1.815 -0.631,1.711 -0.846,2.093c-0.15,0.267 -0.216,0.572 -0.343,0.85c-0.426,0.931 -0.55,0.862 -0.829,2.051c-0.034,0.144 -0.483,1.351 -0.691,1.712c-0.078,0.135 -0.077,0.245 -0.154,0.38c-0.46,0.81 -0.241,0.878 -0.69,1.707c-0.064,0.118 -0.087,0.216 -0.137,0.34c-0.116,0.29 -0.275,0.55 -0.345,0.855c-0.033,0.144 -0.488,1.366 -0.691,1.711c-0.08,0.136 -0.075,0.244 -0.154,0.381c-0.153,0.265 -0.237,0.562 -0.343,0.849c-0.608,1.653 -1.028,1.6 -1.664,4.119c-0.036,0.144 -0.494,1.357 -0.692,1.712c-0.074,0.133 -0.08,0.247 -0.154,0.38c-0.148,0.267 -0.217,0.571 -0.343,0.85c-0.179,0.394 -0.325,0.795 -0.484,1.197c-0.055,0.14 -0.19,0.068 -0.699,1.73c-0.332,1.086 -0.45,1.013 -0.835,2.066c-0.382,1.045 -0.567,0.961 -0.83,2.055c-0.074,0.308 -0.198,0.597 -0.352,0.873c-0.08,0.142 -0.093,0.206 -0.145,0.36c-0.067,0.195 -0.138,0.277 -0.192,0.475c-0.042,0.152 -0.075,0.243 -0.154,0.38c-0.465,0.804 -0.241,0.88 -0.69,1.708c-0.065,0.12 -0.086,0.217 -0.139,0.343c-0.121,0.288 -0.276,0.552 -0.346,0.856c-0.071,0.308 -0.193,0.597 -0.352,0.871c-0.084,0.146 -0.092,0.199 -0.145,0.36c-0.067,0.202 -0.138,0.269 -0.192,0.475c-0.041,0.157 -0.071,0.241 -0.153,0.38c-0.47,0.794 -0.222,0.887 -0.681,1.686c-0.076,0.133 -0.08,0.25 -0.155,0.384c-0.628,1.118 -1.439,3.462 -1.526,3.777c-0.082,0.298 -0.199,0.586 -0.346,0.858c-0.068,0.125 -0.093,0.207 -0.138,0.343c-0.202,0.598 -0.448,1.146 -0.697,1.726c-0.072,0.168 -0.091,0.18 -0.144,0.356c-0.069,0.231 -0.156,0.266 -0.203,0.502c-0.031,0.157 -0.107,0.185 -0.138,0.342c-0.031,0.225 -0.856,2.312 -1.044,2.585c-0.099,0.143 -0.039,0.198 -0.138,0.341l0.342,-0.847c-0.209,0.394 -0.275,0.805 -0.484,1.199c-0.457,0.862 -0.306,0.823 -0.697,1.726c-0.18,0.414 -0.307,0.796 -0.489,1.21c-0.131,0.297 -0.217,0.563 -0.348,0.861c-0.18,0.41 -0.272,0.804 -0.484,1.198c-0.147,0.275 -0.214,0.578 -0.347,0.86c-0.189,0.401 -0.313,0.803 -0.489,1.21c-0.092,0.213 -0.886,-0.01 -1.044,2.584c-0.296,0.388 -0.052,0.468 -0.344,0.852c-0.417,0.548 -0.129,0.313 -0.145,0.359c-0.083,0.234 -0.163,0.252 -0.201,0.497c-0.024,0.157 -0.114,0.185 -0.138,0.342c-0.03,0.223 -0.797,2.217 -1.036,2.565c-0.098,0.143 -0.054,0.235 -0.153,0.378c-0.3,0.385 -0.048,0.472 -0.344,0.852c-0.424,0.545 -0.128,0.311 -0.145,0.358c-0.085,0.233 -0.167,0.253 -0.201,0.499c-0.022,0.154 -0.116,0.186 -0.138,0.341c-0.031,0.223 -0.791,2.204 -1.037,2.566c-0.096,0.141 -0.066,0.232 -0.153,0.379c-0.158,0.265 -0.153,0.61 -0.344,0.852c-0.128,0.162 -0.017,0.196 -0.144,0.357l-0.339,0.839c-0.032,0.223 -0.787,2.193 -1.037,2.567c-0.094,0.14 -0.067,0.234 -0.153,0.379c-0.157,0.265 -0.152,0.611 -0.344,0.852c-0.129,0.161 -0.015,0.196 -0.144,0.357l-0.339,0.838c-0.032,0.222 -0.784,2.186 -1.037,2.567c-0.092,0.139 -0.069,0.236 -0.153,0.38c-0.156,0.265 -0.15,0.612 -0.344,0.851c-0.131,0.161 -0.013,0.195 -0.144,0.356l-0.338,0.838c-0.205,1.394 -0.643,1.198 -1.038,2.568c-0.084,0.143 -0.07,0.237 -0.154,0.38c-0.244,0.416 -0.047,0.485 -0.344,0.851c-0.131,0.161 -0.067,0.169 -0.146,0.36c-0.089,0.216 -0.151,0.241 -0.19,0.471c-0.028,0.165 -0.073,0.242 -0.156,0.386c-0.153,0.265 -0.189,0.583 -0.343,0.848c-0.24,0.386 -0.091,0.434 -0.331,0.819c-0.157,0.252 -0.019,0.226 -0.192,0.475c-0.15,0.217 -0.099,0.559 -0.296,0.733c-0.42,0.371 -2.919,0.269 -3.156,0.267c-23.513,-0.174 -23.498,0.28 -47.006,-0.006c-1.533,-0.019 -2.483,0.524 -2.872,0.471c-0.309,-0.266 -0.164,-0.289 -0.476,-0.558c-0.264,-0.227 -0.187,-0.262 -0.431,-0.505c-0.172,-0.172 -0.286,-0.362 -0.457,-0.536c-0.168,-0.172 -0.294,-0.374 -0.464,-0.544c-0.17,-0.17 -0.277,-0.355 -0.448,-0.525c-0.172,-0.171 -0.295,-0.378 -0.467,-0.548c-0.171,-0.169 -0.276,-0.355 -0.447,-0.524c-0.172,-0.17 -0.295,-0.378 -0.468,-0.548c-0.269,-0.265 -0.187,-0.268 -0.447,-0.524c-0.262,-0.258 -0.197,-0.282 -0.467,-0.548c-0.171,-0.169 -0.275,-0.356 -0.447,-0.524c-0.172,-0.169 -0.294,-0.378 -0.467,-0.548l-1.828,-2.144l0.428,0.502c-0.137,-0.326 -0.363,-0.261 -0.5,-0.587c-0.054,-0.129 -1.688,-2.078 -1.837,-2.155c-0.292,-0.15 -0.153,-0.373 -0.446,-0.523c-0.169,-0.223 -0.302,-0.329 -0.471,-0.552c-0.146,-0.194 -0.202,-0.379 -0.418,-0.49c-0.715,-0.37 -0.903,-1.06 -0.911,-1.069c-0.26,-0.258 -0.178,-0.258 -0.446,-0.523c-0.27,-0.268 -0.205,-0.289 -0.468,-0.549c-0.172,-0.169 -0.275,-0.355 -0.447,-0.524c-0.173,-0.17 -0.295,-0.378 -0.468,-0.548l-2.744,-3.218c-0.301,-0.363 -0.202,-0.226 -0.499,-0.585c-0.266,-0.322 -0.207,-0.124 -0.423,-0.496c-0.287,-0.495 -0.717,-0.653 -0.987,-1.158c-0.114,-0.212 -0.206,-0.38 -0.419,-0.491c-0.815,-0.426 -0.84,-0.998 -0.913,-1.07c-0.172,-0.17 -0.274,-0.352 -0.445,-0.522c-0.173,-0.172 -0.296,-0.378 -0.469,-0.55c-0.173,-0.171 -0.273,-0.352 -0.445,-0.522c-0.174,-0.172 -0.295,-0.378 -0.469,-0.55c-0.173,-0.171 -0.272,-0.352 -0.445,-0.522c-0.174,-0.171 -0.294,-0.378 -0.469,-0.55c-0.173,-0.171 -0.272,-0.351 -0.445,-0.522c-0.174,-0.173 -0.3,-0.375 -0.47,-0.552c-0.248,-0.257 -0.195,-0.221 -0.425,-0.498c-0.265,-0.319 -0.23,-0.261 -0.49,-0.574c-0.422,-1.499 -0.907,-1.057 -0.991,-1.162c-0.145,-0.182 -0.259,-0.325 -0.42,-0.493c-0.176,-0.184 -0.305,-0.38 -0.481,-0.564c-0.165,-0.173 -0.27,-0.333 -0.433,-0.508c-0.178,-0.191 -0.323,-0.378 -0.492,-0.578c-0.145,-0.171 -0.274,-0.318 -0.418,-0.49c-0.177,-0.212 -0.366,-0.379 -0.519,-0.609c-0.146,-0.219 -1.218,-1.441 -1.33,-1.56c-0.49,-0.521 -0.42,-0.561 -0.92,-1.079c-2.742,-2.84 -2.538,-3.014 -2.778,-3.259c-0.165,-0.168 -0.274,-0.342 -0.436,-0.512c-0.173,-0.181 -0.304,-0.385 -0.48,-0.563c-0.166,-0.168 -0.271,-0.34 -0.435,-0.51c-0.174,-0.181 -0.302,-0.384 -0.479,-0.562c-0.169,-0.17 -0.228,-0.39 -0.435,-0.51c-0.915,-0.534 -0.634,-0.796 -0.915,-1.073c-0.172,-0.17 -0.275,-0.353 -0.446,-0.523c-0.173,-0.172 -0.295,-0.379 -0.469,-0.55c-0.173,-0.17 -0.273,-0.353 -0.446,-0.523c-0.174,-0.171 -0.295,-0.379 -0.469,-0.55c-0.268,-0.261 -0.175,-0.258 -0.445,-0.522c-0.042,-0.041 0.03,-0.063 -0.469,-0.55c-0.173,-0.169 -0.271,-0.354 -0.445,-0.522c-0.175,-0.169 -0.294,-0.38 -0.468,-0.549l-0.915,-1.073c-0.299,-0.357 -0.205,-0.234 -0.501,-0.587c-0.268,-0.319 -0.205,-0.139 -0.418,-0.491c-0.294,-0.485 -0.72,-0.67 -0.994,-1.166c-0.114,-0.205 -0.207,-0.372 -0.413,-0.485c-0.8,-0.437 -0.839,-0.998 -0.912,-1.069c-0.171,-0.169 -0.274,-0.353 -0.445,-0.522c-0.173,-0.171 -0.296,-0.379 -0.469,-0.55c-0.27,-0.263 -0.182,-0.266 -0.446,-0.523c-0.265,-0.258 -0.197,-0.283 -0.468,-0.549c-0.172,-0.169 -0.273,-0.356 -0.446,-0.523c-0.174,-0.168 -0.294,-0.38 -0.467,-0.548l-0.916,-1.074c-0.29,-0.348 -0.216,-0.247 -0.503,-0.59c-0.248,-0.297 -0.165,-0.179 -0.42,-0.492c-0.185,-0.228 -0.331,-0.378 -0.517,-0.606c-0.169,-0.221 -0.306,-0.336 -0.475,-0.557c-0.145,-0.19 -0.202,-0.374 -0.413,-0.485c-0.722,-0.378 -0.895,-1.052 -0.911,-1.069c-0.269,-0.264 -0.185,-0.267 -0.446,-0.523c-0.042,-0.041 0.022,-0.068 -0.468,-0.549c-0.172,-0.168 -0.274,-0.356 -0.446,-0.523c-0.173,-0.169 -0.294,-0.38 -0.468,-0.548l-0.916,-1.074c-0.284,-0.34 -0.216,-0.246 -0.503,-0.59c-0.256,-0.306 -0.181,-0.195 -0.419,-0.492c-0.184,-0.229 -0.333,-0.378 -0.517,-0.606c-0.168,-0.221 -0.307,-0.337 -0.475,-0.558c-0.144,-0.189 -0.204,-0.373 -0.413,-0.485c-0.738,-0.393 -0.882,-1.039 -0.911,-1.069c-0.269,-0.264 -0.185,-0.267 -0.445,-0.522c-0.271,-0.266 -0.205,-0.291 -0.469,-0.55c-0.172,-0.168 -0.272,-0.356 -0.445,-0.522c-0.176,-0.169 -0.296,-0.384 -0.472,-0.553l-0.547,-0.642c-0.208,-0.296 -0.161,-0.136 -0.377,-0.442c-0.046,-0.066 -0.479,0.113 -0.579,-0.679c-0.023,-0.183 -0.584,-23.464 -0.55,-23.636c0.207,-1.044 1.159,-1.175 1.163,-1.178c15.803,-0.401 21.511,0.38 26.124,-0.675c3.455,-0.791 3.607,0.246 7.988,-1.051c4.479,-1.326 4.514,-1.189 4.887,-1.35c0.124,-0.053 0.132,-0.253 0.25,-0.319c0.27,-0.152 0.582,-0.214 0.876,-0.314c1.215,-0.413 1.057,-0.657 1.161,-0.686c0.194,-0.054 0.392,0.233 0.58,0.164c0.17,-0.063 0.111,-0.375 0.262,-0.476c0.252,-0.169 0.605,-0.123 0.865,-0.279c0.145,-0.087 0.129,-0.369 0.291,-0.413c0.196,-0.053 0.393,0.246 0.584,0.175c0.172,-0.064 0.107,-0.383 0.258,-0.487c0.751,-0.517 0.962,0.034 1.674,-0.521c0.169,-0.132 0.081,-0.46 0.25,-0.592c0.255,-0.257 0.104,-0.346 0.36,-0.604c0.273,-0.275 0.366,-0.121 0.631,-0.395c0.169,-0.174 0.195,-0.455 0.363,-0.63c0.168,-0.175 0.448,-0.213 0.617,-0.388l0.995,-1.002c0.266,-0.262 0.119,-0.352 0.387,-0.616c0.041,-0.041 0.128,0.107 0.619,-0.375c0.176,-0.173 0.224,-0.45 0.398,-0.625c0.164,-0.165 0.429,-0.205 0.593,-0.37c0.259,-0.334 0.116,-0.4 0.384,-0.746c0.18,-0.232 0.297,-0.07 0.447,-0.327c0.457,-0.78 0.06,-0.921 0.568,-1.697c0.093,-0.142 0.332,-0.143 0.418,-0.289c0.153,-0.263 0.076,-0.633 0.259,-0.876c0.119,-0.158 0.483,-0.021 0.556,-0.205c0.083,-0.206 -0.266,-0.411 -0.222,-0.629c0.032,-0.161 0.321,-0.14 0.405,-0.282c0.155,-0.264 0.148,-0.599 0.277,-0.877c0.178,-0.387 0.492,-0.707 0.638,-1.107c0.03,-0.083 0.189,-2.379 0.387,-2.885c0.151,-0.386 0.462,-0.7 0.594,-1.093c0.279,-0.827 0.19,-0.831 0.121,-10.905c-0.011,-1.665 -0.772,-2.903 -0.926,-3.979c-0.224,-1.567 -0.287,-1.539 -0.81,-3.035c-0.416,-1.19 -0.645,-1.062 -0.671,-1.167c-0.049,-0.197 0.247,-0.395 0.173,-0.584c-0.068,-0.173 -0.393,-0.098 -0.499,-0.251c-0.52,-0.748 0.073,-0.971 -0.478,-1.693c-0.133,-0.174 -0.48,-0.064 -0.613,-0.238c-0.163,-0.167 -0.432,-0.201 -0.595,-0.367c-0.174,-0.178 -0.216,-0.459 -0.389,-0.637c-0.248,-0.255 -0.353,-0.091 -0.581,-0.363c-0.085,-0.101 -0.043,-0.114 -0.578,-1.542c-0.296,-0.281 0.044,-0.442 -0.246,-0.717c-0.088,-0.084 -0.17,0.053 -1.31,-0.762c-0.155,-0.111 -0.209,-0.335 -0.37,-0.438c-0.714,-0.457 -0.878,-0.106 -1.529,-0.637c-0.171,-0.139 -0.187,-0.415 -0.356,-0.557c-0.216,-0.182 -0.533,-0.211 -0.758,-0.383c-0.146,-0.111 -0.17,-0.347 -0.326,-0.443c-0.253,-0.157 -0.601,-0.118 -0.847,-0.286c-0.149,-0.102 -0.096,-0.411 -0.266,-0.473c-0.189,-0.069 -0.386,0.221 -0.579,0.166c-0.161,-0.046 -0.146,-0.325 -0.289,-0.411c-0.261,-0.156 -0.61,-0.12 -0.867,-0.282c-0.143,-0.091 -0.105,-0.38 -0.265,-0.435c-0.197,-0.068 -0.411,0.183 -0.613,0.131c-0.142,-0.037 -0.12,-0.303 -0.256,-0.357c-0.291,-0.116 -0.641,-0 -0.931,-0.116c-1.996,-0.185 -2.088,0.075 -2.841,-0.483c-0.139,-0.103 -0.041,-0.383 -0.18,-0.486c-2.572,0.002 -2.588,-0.024 -4.963,-1.038c-3.107,0.095 -3.176,0.248 -5.992,-1.033c-3.5,0.039 -3.477,0.042 -6.996,0.103c-5.717,0.105 -5.703,0.1 -19.994,0.001Zm142.861,-15.286c0.224,-0.396 0.259,-0.8 0.483,-1.196c0.154,-0.272 0.21,-0.576 0.346,-0.857c0.196,-0.404 0.309,-0.804 0.491,-1.214c0.086,-0.194 0.343,-0.784 0.347,-0.86c0.068,-1.286 0.597,-1.053 0.543,-1.343c0.142,-0.233 0.013,-0.151 0.154,-0.382c0.249,-0.408 0.053,-0.478 0.344,-0.85c0.119,-0.153 0.031,-0.191 0.142,-0.351c0.511,-0.737 0.681,-0.586 0.6,-1.486c-0.021,-0.23 -0.555,-0.794 -0.707,-0.969c-0.169,-0.194 -0.499,-0.125 -0.746,-0.193c-0.139,-0.039 -1.41,-0.39 -1.718,-0.567c-0.122,-0.07 -0.133,-0.278 -0.264,-0.331c-0.291,-0.117 -0.622,-0.09 -0.93,-0.149c-0.314,-0.06 -0.666,-0.039 -0.937,-0.209c-0.156,-0.098 -0.038,-0.448 -0.211,-0.511c-0.21,-0.076 -0.419,0.252 -0.637,0.205c-0.16,-0.034 -0.14,-0.318 -0.281,-0.401c-0.803,-0.473 -0.935,-0.124 -1.741,-0.603c-0.123,-0.073 -0.126,-0.289 -0.258,-0.344c-0.291,-0.119 -0.623,-0.087 -0.932,-0.144c-0.315,-0.058 -0.671,-0.028 -0.939,-0.202c-0.16,-0.104 -0.02,-0.473 -0.2,-0.538c-0.217,-0.077 -0.424,0.278 -0.649,0.234c-0.163,-0.032 -0.133,-0.33 -0.275,-0.415c-0.263,-0.157 -0.625,-0.1 -0.878,-0.273c-0.147,-0.101 -0.062,-0.42 -0.228,-0.485c-0.195,-0.077 -0.406,0.208 -0.609,0.157c-0.156,-0.039 -0.152,-0.303 -0.291,-0.384c-0.794,-0.464 -0.908,-0.158 -1.706,-0.627c-0.217,-0.127 -0.97,-0.907 -3.231,-1.454c-0.144,-0.035 -1.395,-0.337 -1.77,-0.549c-0.148,-0.084 -0.954,-0.921 -3.227,-1.458c-0.144,-0.034 -1.41,-0.333 -1.772,-0.541c-0.135,-0.077 -0.163,-0.281 -0.298,-0.358c-0.266,-0.15 -0.579,-0.197 -0.867,-0.3c-1.157,-0.417 -1.068,-0.557 -1.168,-0.59c-0.298,-0.097 -0.623,-0.078 -0.931,-0.136c-3.313,-0.621 -1.959,-2.918 -0.951,-3.322c1.605,-0.644 1.687,-0.285 1.813,-0.362c0.18,-0.109 0.052,-0.466 0.221,-0.591c0.795,-0.589 1.035,0.228 1.838,-0.327c0.19,-0.131 -0.013,-0.523 0.162,-0.673c0.233,-0.199 0.659,-0.029 0.892,-0.228c1.796,-0.111 1.799,-0.052 1.939,-0.12c0.417,-0.201 0.617,-0.726 1.034,-0.925c0.296,-0.142 0.687,0.102 0.982,-0.041c0.417,-0.201 0.614,-0.732 1.032,-0.931c0.297,-0.142 0.69,0.112 0.988,-0.03c0.418,-0.2 0.611,-0.737 1.03,-0.935c0.883,-0.418 1.014,0.2 1.889,-0.241c0.197,-0.099 0.158,-0.13 2.135,-1.752c0.299,-0.052 -0.064,-0.393 0.231,-0.444c0.404,-0.07 0.293,0.412 0.673,0.287c0.194,-0.064 0.042,-0.455 0.206,-0.577c0.776,-0.573 1.01,0.149 1.801,-0.401c0.174,-0.121 0.029,-0.475 0.198,-0.603c0.775,-0.589 1.026,0.174 1.811,-0.38c0.178,-0.125 0.015,-0.492 0.186,-0.625c0.243,-0.189 0.654,-0.028 0.897,-0.216c0.151,-0.103 0.1,-0.384 0.251,-0.487l1.798,-0.444c0.441,-0.193 0.478,0.027 0.922,-0.167c0.137,-0.06 0.138,-0.29 0.273,-0.355c0.55,-0.264 1.179,-0.339 1.727,-0.607c0.147,-0.072 0.164,-0.301 0.304,-0.386c0.255,-0.156 0.559,-0.213 0.841,-0.314c1.203,-0.43 1.055,-0.658 1.158,-0.689c0.187,-0.056 0.386,0.204 0.568,0.137c0.164,-0.061 0.126,-0.354 0.273,-0.449c0.254,-0.165 0.602,-0.133 0.862,-0.288c0.143,-0.085 0.135,-0.358 0.295,-0.404c0.191,-0.055 0.39,0.222 0.577,0.153c0.167,-0.062 0.117,-0.366 0.266,-0.464c0.253,-0.167 0.604,-0.127 0.863,-0.282c0.144,-0.087 0.131,-0.366 0.293,-0.412c0.193,-0.054 0.39,0.235 0.578,0.166c0.17,-0.063 0.114,-0.375 0.264,-0.476c0.251,-0.169 0.604,-0.125 0.863,-0.281c0.145,-0.086 0.131,-0.366 0.293,-0.411c0.194,-0.054 0.392,0.238 0.581,0.168c0.171,-0.063 0.11,-0.377 0.261,-0.478c0.252,-0.169 0.606,-0.121 0.867,-0.277c0.144,-0.086 0.125,-0.369 0.287,-0.412c0.201,-0.053 0.4,0.243 0.597,0.177c0.167,-0.056 0.095,-0.391 0.256,-0.463c0.568,-0.253 1.222,-0.254 1.81,-0.458c0.13,-0.045 0.183,-0.216 0.306,-0.275c0.547,-0.263 1.143,-0.416 1.688,-0.682c0.137,-0.067 0.207,-0.232 0.339,-0.308c0.26,-0.147 0.548,-0.237 0.824,-0.351c1.049,-0.432 0.962,-0.572 2.001,-0.998c0.625,-0.256 0.577,-0.307 1.176,-0.649c0.795,-0.454 0.88,-0.235 1.67,-0.674c0.135,-0.075 0.197,-0.248 0.331,-0.325c0.79,-0.455 0.879,-0.22 1.674,-0.665c0.136,-0.076 0.192,-0.256 0.327,-0.334c0.79,-0.46 0.882,-0.208 1.677,-0.657c0.137,-0.077 0.188,-0.263 0.323,-0.343c0.258,-0.151 0.552,-0.228 0.831,-0.335c1.051,-0.405 0.938,-0.593 2.002,-0.996c1.049,-0.397 0.934,-0.6 2.001,-0.998c1.062,-0.396 0.948,-0.614 2.001,-0.999c1.061,-0.388 0.942,-0.619 2,-0.999c1.196,-0.43 1.057,-0.653 1.161,-0.682c0.192,-0.053 0.392,0.221 0.578,0.15c0.167,-0.064 0.111,-0.371 0.26,-0.471c0.252,-0.169 0.604,-0.131 0.866,-0.286c0.141,-0.084 0.151,-0.311 0.29,-0.398c0.861,-0.544 2.866,-0.649 3.469,0.01c0.127,0.138 3.361,9.94 3.67,10.514c0.07,0.129 0.251,0.174 0.321,0.303c0.143,0.266 0.212,0.566 0.301,0.854c0.171,0.554 1.805,5.836 2.365,6.848c0.072,0.131 0.265,0.165 0.337,0.296c0.158,0.285 0.096,0.308 1.337,3.841c0.421,1.198 0.655,1.05 0.679,1.155c0.05,0.217 -0.251,0.434 -0.177,0.644c0.057,0.164 0.388,0.06 0.476,0.208c0.501,0.838 -0.013,0.97 0.366,1.87c0.054,0.129 0.271,0.126 0.34,0.248c0.151,0.27 0.209,0.584 0.293,0.882c0.483,1.711 0.334,1.72 0.392,1.861c0.052,0.126 0.248,0.141 0.315,0.26c0.46,0.813 0.123,0.936 0.606,1.748c0.083,0.14 0.37,0.114 0.403,0.273c0.046,0.224 -0.289,0.439 -0.211,0.654c0.062,0.173 0.418,0.04 0.516,0.196c0.172,0.271 0.146,0.625 0.204,0.941c0.057,0.311 0.019,0.646 0.141,0.938c0.055,0.132 0.324,0.104 0.352,0.244c0.045,0.226 -0.243,0.451 -0.17,0.669c0.054,0.162 0.379,0.064 0.466,0.211c0.163,0.275 0.152,0.622 0.215,0.936c0.062,0.309 0.04,0.64 0.159,0.932c0.052,0.127 0.257,0.133 0.323,0.253c0.149,0.271 0.214,0.582 0.3,0.879c0.49,1.689 0.339,1.721 0.395,1.862c0.05,0.124 0.24,0.143 0.306,0.26c0.152,0.269 0.227,0.575 0.33,0.866c0.419,1.19 0.654,1.052 0.677,1.157c0.047,0.219 -0.27,0.434 -0.193,0.645c0.062,0.17 0.407,0.051 0.502,0.204c0.17,0.272 0.151,0.624 0.211,0.939c0.059,0.311 0.024,0.645 0.143,0.937c0.053,0.129 0.269,0.126 0.338,0.247c0.153,0.269 0.216,0.581 0.302,0.879c0.487,1.697 0.315,1.731 0.372,1.873c0.051,0.126 0.257,0.13 0.323,0.248c0.15,0.271 0.217,0.581 0.303,0.879c0.491,1.692 0.328,1.725 0.384,1.866c0.05,0.125 0.245,0.141 0.312,0.258c0.47,0.819 0.144,0.935 0.617,1.744c0.081,0.138 0.361,0.12 0.392,0.277c0.045,0.225 -0.285,0.441 -0.205,0.656c0.064,0.173 0.419,0.037 0.519,0.192c0.174,0.27 0.152,0.625 0.21,0.941c0.056,0.312 0.012,0.648 0.131,0.941c0.053,0.131 0.323,0.103 0.348,0.243c0.042,0.23 -0.258,0.457 -0.182,0.678c0.057,0.165 0.393,0.051 0.484,0.2c0.168,0.274 0.154,0.623 0.214,0.939c0.059,0.311 0.026,0.644 0.143,0.938c0.051,0.128 0.264,0.128 0.332,0.248c0.152,0.27 0.218,0.581 0.304,0.878c0.491,1.697 0.319,1.728 0.375,1.87c0.05,0.126 0.25,0.138 0.318,0.255c0.475,0.819 0.139,0.94 0.612,1.746c0.081,0.139 0.368,0.116 0.398,0.274c0.043,0.23 -0.303,0.446 -0.222,0.665c0.066,0.177 0.432,0.025 0.537,0.182c0.179,0.268 0.111,0.637 0.214,0.942c0.357,1.055 0.538,0.965 0.892,2.022c0.051,0.153 0.475,1.419 -0.109,2.017c-0.196,0.2 -1.623,0.462 -2.012,0.31c-0.433,-0.169 -0.686,-0.663 -1.119,-0.832c-0.607,-0.387 -0.428,-0.581 -1.029,-0.964c-0.417,-0.266 -0.482,-0.059 -0.913,-0.274c-0.398,-0.198 -0.706,-0.557 -1.113,-0.736c-0.917,-0.402 -1.025,0.209 -1.928,-0.194c-0.414,-0.185 -0.646,-0.651 -1.04,-0.876c-0.27,-0.154 -0.624,-0.099 -0.905,-0.234c-0.401,-0.192 -0.708,-0.554 -1.115,-0.731c-0.918,-0.399 -1.022,0.255 -1.941,-0.155c-0.418,-0.186 -0.633,-0.677 -1.027,-0.911c-0.268,-0.159 -0.623,-0.101 -0.904,-0.236c-0.401,-0.192 -0.707,-0.556 -1.115,-0.733c-0.931,-0.405 -1.033,0.301 -1.959,-0.11c-0.423,-0.188 -0.617,-0.709 -1.01,-0.953c-0.264,-0.164 -0.623,-0.101 -0.903,-0.236c-0.401,-0.193 -0.707,-0.556 -1.114,-0.734c-0.944,-0.412 -1.032,0.315 -1.982,-0.063c-0.427,-0.17 -0.611,-0.725 -1.026,-0.921c-0.299,-0.141 -0.69,0.105 -0.991,-0.031c-0.414,-0.187 -0.639,-0.662 -1.035,-0.884c-0.887,-0.497 -1.021,0.263 -1.946,-0.157c-0.424,-0.193 -0.597,-0.742 -1,-0.974c-0.267,-0.154 -0.608,-0.112 -0.916,-0.132c-0.294,-0.019 -0.59,0.033 -0.885,0.014l-0.997,0.795c-0.088,1.438 -0.13,1.422 -0.387,2.831l-0.46,0.211c-0.024,0.224 -0.262,2.429 -0.514,2.775c-0.107,0.147 -0.393,0.087 -0.488,0.241l-0.526,1.775c-0.066,0.155 -0.392,0.059 -0.458,0.214c-0.126,0.298 -0.008,0.648 -0.043,0.969c-0.016,0.148 -0.145,1.337 -0.479,1.804c-0.104,0.145 -0.369,0.104 -0.473,0.249c-0.498,1.603 -0.455,1.612 -0.537,1.731c-0.109,0.157 -0.37,0.158 -0.479,0.316c-0.227,0.18 -0.235,1.878 -2.313,1.016c-0.805,-0.334 -0.595,-0.887 -3.746,-1.513c-0.397,-0.205 -0.375,-0.107 -0.773,-0.312c-0.28,-0.144 -0.17,-0.023 -0.452,-0.182c-0.27,-0.152 -0.592,-0.168 -0.848,-0.343c-0.164,-0.112 -0.201,-0.035 -0.365,-0.147l-3.369,-1.361c-0.169,-0.076 -0.243,-0.09 -0.412,-0.167l-1.212,-0.49c-0.399,-0.062 -0.095,-0.14 -0.502,-0.203c-0.158,-0.024 -0.198,-0.071 -0.343,-0.139c-0.29,-0.136 -0.55,-0.281 -0.862,-0.348c-0.589,-0.127 -1.112,-0.424 -1.661,-0.671c-0.167,-0.075 -0.245,-0.092 -0.413,-0.167l-1.211,-0.489c-0.251,-0.034 -0.251,-0.169 -0.503,-0.203c-0.158,-0.021 -0.198,-0.072 -0.343,-0.138c-0.29,-0.134 -0.549,-0.28 -0.861,-0.348c-0.589,-0.128 -1.114,-0.425 -1.664,-0.672c-0.166,-0.074 -0.255,-0.077 -0.413,-0.167c-0.41,-0.234 -0.461,-0.043 -0.848,-0.342c-0.275,-0.213 -0.086,0.068 -0.362,-0.146c-0.408,-0.05 -0.087,-0.153 -0.503,-0.203c-0.157,-0.019 -0.199,-0.073 -0.342,-0.138c-0.29,-0.133 -0.547,-0.284 -0.86,-0.347c-0.13,-0.026 -1.662,-0.665 -1.688,-0.682c-0.15,-0.098 -0.239,-0.059 -0.389,-0.157l-1.21,-0.489c-0.405,-0.04 -0.069,-0.154 -0.482,-0.195c-0.161,-0.016 -0.217,-0.086 -0.367,-0.148c-0.204,-0.084 -1.377,-0.637 -3.784,-1.529c-0.177,-0.066 0.177,0.066 0,-0c-0.185,-0.195 -0.119,0.716 0.582,-1.44c0.096,-0.296 0.254,-0.57 0.35,-0.867l0.13,-0.321c0.033,-0.224 0.791,-2.211 1.043,-2.582c0.095,-0.14 0.067,-0.233 0.153,-0.379c0.075,-0.127 0.155,-0.084 0.689,-1.706l-0.202,0.5Zm-184.951,166.392c-0.224,-0.224 -0.657,-0.133 -0.881,-0.357c-0.232,-0.232 -0.333,-0.796 -0.346,-0.87c-0.095,-0.536 0.097,-0.527 0.001,-1.067c0.151,-8.078 -0.015,-93.621 0.081,-94.094c0.296,-1.449 0.722,-1.222 2.19,-1.257c7.596,-0.182 14.767,-0.005 16.05,0.026c3.58,0.088 3.545,0.307 6.955,1.378c0.284,0.089 0.589,0.141 0.845,0.293c0.144,0.086 0.167,0.308 0.31,0.396c0.251,0.156 0.589,0.141 0.829,0.313c0.166,0.119 0.172,0.387 0.33,0.516c0.216,0.176 0.538,0.185 0.751,0.364c0.173,0.146 0.2,0.418 0.364,0.574c0.555,0.528 0.714,0.29 1.256,0.818c0.766,0.747 0.653,0.829 1.409,1.587c0.165,0.166 0.415,0.231 0.576,0.402c0.17,0.179 0.224,0.449 0.396,0.626c0.404,0.416 0.565,0.289 0.884,1.078c0.111,0.274 0.149,0.583 0.307,0.833c0.09,0.143 0.356,0.142 0.406,0.303c0.058,0.185 -0.197,0.383 -0.134,0.566c0.055,0.161 0.341,0.133 0.426,0.28c0.075,0.132 -0.135,0.167 0.466,1.835c0.534,1.481 0.894,1.43 0.975,6.119c0.029,1.676 0.009,54.033 0.014,74.009c0.001,2.071 -0.001,2.052 -0.125,4.111c-0.008,0.008 -0.143,0.941 -1.186,1.148c-0.368,0.073 -26.664,-0.044 -33.15,0.066Zm209.829,-135.423c-0.318,-0.081 -2.631,-0.632 -3.649,-1.129c-0.123,-0.06 -0.181,-0.217 -0.304,-0.278c-0.372,-0.187 -3.5,-1.325 -3.806,-1.437c-1.484,-0.54 -1.411,-0.68 -2.9,-1.237c-2.733,-1.021 -2.756,-0.954 -2.982,-1.069c-0.152,-0.077 -0.07,-0.235 -2.012,-0.944c-1.06,-0.387 -1.012,-0.474 -2.096,-0.786c-0.298,-0.086 -0.613,-0.136 -0.888,-0.28c-0.129,-0.068 -0.154,-0.265 -0.282,-0.334c-0.824,-0.443 -0.913,-0.184 -1.726,-0.621c-0.126,-0.068 -0.181,-0.237 -0.313,-0.293c-2.35,-0.996 -2.433,-0.741 -2.631,-0.837c-0.131,-0.063 -0.171,-0.253 -0.302,-0.316c-0.832,-0.399 -0.921,-0.128 -1.745,-0.568c-0.129,-0.069 -0.181,-0.244 -0.311,-0.312c-0.194,-0.102 -0.269,0.103 -2.577,-0.944c-1.034,-0.469 -2.672,-0.956 -3.705,-1.388c-0.179,-0.075 0.267,-0.144 0.088,-0.218c-0.511,-0.211 0.356,0.541 -0.082,0.203c-0.126,-0.097 0.273,-1.128 0.664,-1.644c0.097,-0.128 0.029,-0.184 0.126,-0.312c0.028,-0.225 0.791,-2.231 1.044,-2.585c0.103,-0.144 0.061,-0.226 0.153,-0.378c0.478,-0.792 0.136,-0.91 0.677,-1.676c0.108,-0.153 0.063,-0.27 0.171,-0.422c0.2,-0.18 0.102,-0.568 0.302,-0.748c1.311,-1.184 5.581,1.118 10.22,2.955c1.457,0.577 1.466,0.502 2.878,1.163c0.138,0.065 0.266,0.1 0.405,0.163c1.872,0.854 1.95,0.616 3.777,1.526c0.125,0.062 0.227,0.105 0.36,0.145c0.171,0.052 0.278,0.128 0.449,0.181c0.148,0.047 0.265,0.1 0.406,0.164c0.278,0.127 2.681,1.087 2.916,1.178c0.29,0.112 0.585,0.207 0.862,0.348c0.127,0.065 0.225,0.106 0.362,0.146c0.174,0.052 0.271,0.127 0.444,0.18c0.152,0.046 0.265,0.099 0.409,0.165c0.228,0.105 1.448,0.743 2.911,1.176c0.6,0.177 1.145,0.44 1.717,0.694c0.165,0.073 0.197,0.073 0.362,0.146c2.586,0.187 2.357,0.91 2.551,1.03c0.187,0.116 0.303,0.082 0.49,0.198l1.033,0.417c-0.043,0.355 -0.546,1.103 -0.589,1.458c-0.018,0.151 -0.208,0.067 -0.707,1.751c-0.089,0.148 -0.064,0.23 -0.153,0.378c-0.159,0.265 -0.15,0.612 -0.344,0.852c-0.133,0.165 -0.071,0.158 -0.144,0.357c-0.143,0.389 -0.151,0.077 -0.201,0.498c-0.018,0.155 -0.12,0.187 -0.138,0.342c-0.042,0.319 -0.302,0.531 -0.343,0.85c-0.265,2.028 -0.581,1.836 -0.845,2.092Zm-6.532,16.17c-1.647,-0.448 -1.864,-0.498 -1.992,-0.57c-0.13,-0.073 -0.145,-0.277 -0.272,-0.355c-0.261,-0.16 -0.589,-0.186 -0.856,-0.337c-0.126,-0.071 -0.16,-0.272 -0.297,-0.317c-0.183,-0.06 -0.391,0.084 -0.576,0.031c-0.133,-0.038 -0.176,-0.232 -0.304,-0.283c-0.292,-0.117 -0.617,-0.126 -0.921,-0.206c-0.301,-0.079 -0.622,-0.119 -0.893,-0.271c-0.134,-0.075 -0.127,-0.305 -0.261,-0.379c-0.27,-0.15 -0.596,-0.164 -0.889,-0.262c-1.193,-0.397 -1.049,-0.615 -1.15,-0.647c-0.185,-0.059 -0.393,0.101 -0.58,0.049c-0.135,-0.038 -0.172,-0.242 -0.302,-0.294c-0.292,-0.118 -0.618,-0.124 -0.923,-0.202c-0.301,-0.078 -0.625,-0.11 -0.895,-0.266c-0.136,-0.079 -0.104,-0.352 -0.254,-0.398c-0.196,-0.059 -0.401,0.195 -0.598,0.139c-0.157,-0.045 -0.155,-0.307 -0.294,-0.392c-0.258,-0.158 -0.591,-0.161 -0.855,-0.312c-0.131,-0.075 -0.15,-0.3 -0.295,-0.345c-0.175,-0.055 -0.368,0.131 -0.544,0.08c-0.155,-0.045 -0.202,-0.264 -0.344,-0.339c-0.269,-0.142 -0.585,-0.176 -0.864,-0.299c-2.667,-1.181 -2.731,-1.012 -2.954,-1.132c-0.128,-0.069 -0.148,-0.269 -0.276,-0.338c-0.272,-0.146 -0.591,-0.182 -0.881,-0.285c-1.495,-0.532 -1.421,-0.695 -2.947,-1.112c-0.3,-0.082 -0.619,-0.125 -0.893,-0.273c-0.131,-0.071 -0.139,-0.285 -0.269,-0.356c-0.271,-0.148 -0.592,-0.175 -0.884,-0.276c-1.178,-0.406 -1.057,-0.601 -1.158,-0.633c-0.169,-0.055 -0.362,0.091 -0.531,0.037c-0.151,-0.048 -0.212,-0.245 -0.352,-0.318c-0.819,-0.427 -0.881,-0.222 -1.698,-0.645c-2.898,-1.499 -3.921,-1.335 -2.939,-4.454c0.675,-2.144 0.733,-2.391 0.961,-2.379c0.941,0.052 1.891,0.77 1.947,0.787c0.214,0.062 0.253,0.144 0.471,0.19c0.168,0.036 0.257,0.081 0.407,0.164c0.267,0.15 0.585,0.186 0.849,0.343c0.143,0.085 0.216,0.095 0.372,0.15c0.198,0.07 0.291,0.147 0.494,0.2c0.138,0.036 0.212,0.079 0.342,0.138c0.288,0.13 0.601,0.177 0.866,0.35c0.158,0.103 0.167,0.089 0.349,0.141c0.243,0.069 0.258,0.215 0.51,0.206c0.291,-0.01 0.548,0.184 0.803,0.324c0.151,0.083 0.26,0.082 0.41,0.166c0.268,0.149 0.585,0.184 0.848,0.342c0.144,0.087 0.212,0.093 0.37,0.149c0.2,0.071 0.29,0.149 0.497,0.201c0.139,0.035 0.229,0.049 0.341,0.138c0.349,0.278 0.781,0.382 1.214,0.49c0.249,0.062 0.26,0.159 0.513,0.207c0.17,0.032 0.188,0.093 0.354,0.143c0.213,0.064 0.253,0.141 0.47,0.19c0.164,0.037 0.243,0.067 0.386,0.156c0.258,0.161 0.585,0.182 0.844,0.341c0.137,0.084 0.218,0.103 0.372,0.15c0.199,0.061 0.277,0.146 0.479,0.194c0.144,0.034 0.246,0.057 0.364,0.147c0.353,0.269 0.778,0.391 1.211,0.489c0.256,0.058 0.255,0.162 0.513,0.207c0.172,0.03 0.186,0.093 0.354,0.143c0.215,0.064 0.25,0.142 0.47,0.19c0.165,0.036 0.244,0.066 0.387,0.156c0.257,0.162 0.586,0.18 0.844,0.341c0.138,0.086 0.214,0.102 0.37,0.149c0.202,0.061 0.275,0.148 0.481,0.194c0.145,0.032 0.246,0.056 0.363,0.147c0.35,0.273 0.776,0.392 1.21,0.489c0.261,0.059 0.251,0.165 0.515,0.208c0.175,0.029 0.184,0.092 0.354,0.143c0.217,0.065 0.247,0.142 0.469,0.189c0.167,0.036 0.244,0.066 0.388,0.157c0.257,0.162 0.587,0.178 0.844,0.341c0.139,0.089 0.211,0.101 0.369,0.149c0.205,0.062 0.272,0.15 0.481,0.194c0.146,0.031 0.247,0.053 0.364,0.147c0.347,0.279 0.772,0.392 1.207,0.488c0.269,0.059 0.245,0.169 0.518,0.209c0.178,0.026 0.181,0.092 0.354,0.143c0.22,0.065 0.244,0.143 0.468,0.189c0.168,0.035 0.244,0.065 0.389,0.157c0.256,0.162 0.586,0.177 0.842,0.34c0.142,0.091 0.217,0.105 0.379,0.153c0.191,0.057 0.233,0.131 0.428,0.173c0.168,0.036 0.28,0.094 0.431,0.174c0.262,0.139 0.57,0.176 0.822,0.332c0.213,0.132 0.43,0.088 0.62,0.251c0.308,0.264 0.554,0.513 -0.016,2.428c-0.296,0.996 -0.316,0.941 -0.5,1.237c-0.562,1.408 -0.517,1.428 -0.613,1.517c-0.287,0.269 0.089,0.233 -0.206,0.509Zm-28.89,-21.037c0.036,-0.321 0.273,-0.445 0.309,-0.765c0.053,-0.47 0.31,-0.821 0.356,-0.882c0.098,-0.127 0.027,-0.182 0.125,-0.309l0.708,-1.752c0.033,-0.052 -0.295,-0.021 0.223,-0.552c0.27,-0.277 0.155,-0.766 0.418,-1.036c0.336,0.041 -0.336,-0.041 0,0l2.258,0.912c0.156,0.07 0.206,0.076 0.361,0.146c0.139,0.062 -0.006,0.253 1.722,0.696c0.804,0.206 0.764,0.292 0.822,0.332c0.25,0.172 0.133,-0.019 0.387,0.156l1.211,0.489c0.263,0.038 0.248,0.168 0.51,0.206c0.168,0.024 0.193,0.058 0.343,0.138c0.133,0.071 -0.005,0.371 1.706,0.689c0.287,0.053 0.541,0.174 0.794,0.321c0.172,0.1 0.263,0.065 0.43,0.174c0.777,0.504 0.898,0.158 1.674,0.676c0.152,0.101 0.241,0.058 0.393,0.159c0.251,0.172 0.592,0.169 0.844,0.341c0.15,0.103 0.196,0.1 0.37,0.15c0.362,0.104 0.095,0.126 0.48,0.194c0.158,0.028 0.209,0.121 0.367,0.148c1.376,0.259 1.196,0.663 2.545,1.028c0.151,0.098 0.237,0.059 0.388,0.157c0.255,0.166 0.595,0.165 0.844,0.341c0.151,0.107 0.192,0.098 0.369,0.149c0.365,0.105 0.097,0.132 0.48,0.194c0.158,0.025 0.209,0.123 0.367,0.148c2.3,0.43 2.155,0.778 2.545,1.028c0.15,0.097 0.238,0.06 0.388,0.157l1.212,0.49c0.237,0.034 0.244,0.16 0.481,0.194c0.158,0.023 0.219,0.086 0.366,0.148c0.14,0.059 0.034,0.231 1.724,0.696c0.808,0.223 0.762,0.293 0.822,0.332c0.239,0.154 0.139,-0.003 0.389,0.157c0.245,0.181 0.599,0.16 0.843,0.341c0.154,0.114 0.186,0.097 0.37,0.15c0.379,0.109 0.085,0.147 0.476,0.192c0.158,0.018 0.216,0.133 0.375,0.151c0.476,0.1 0.377,0.246 0.86,0.347c1.002,0.211 1.577,0.618 1.627,0.657c-0.024,1.565 -1.015,1.487 -1.222,3.026c-0.152,0.256 -0.183,0.571 -0.334,0.828c-0.099,0.168 -0.086,0.329 -0.198,0.489c-0.149,0.213 -0.065,0.595 -0.292,0.722c-0.367,0.205 -0.414,0.052 -0.488,0.03c-0.606,-0.184 -0.529,-0.275 -1.135,-0.458l-1.786,-0.722c-0.126,-0.067 -0.229,-0.076 -0.354,-0.143c-1.224,-0.649 -1.284,-0.44 -2.552,-1.031c-0.123,-0.057 -0.234,-0.096 -0.36,-0.146c-0.292,-0.115 -0.561,-0.264 -0.863,-0.349c-0.3,-0.084 -0.588,-0.203 -0.863,-0.349c-0.129,-0.068 -0.229,-0.075 -0.357,-0.144c-1.217,-0.655 -1.287,-0.433 -2.549,-1.03c-0.124,-0.059 -0.234,-0.095 -0.361,-0.146c-0.291,-0.117 -0.561,-0.266 -0.863,-0.349c-0.3,-0.082 -0.589,-0.199 -0.862,-0.348c-0.132,-0.072 -0.227,-0.072 -0.358,-0.145c-0.821,-0.452 -0.887,-0.241 -1.699,-0.686c-0.128,-0.07 -0.232,-0.105 -0.371,-0.15c-0.181,-0.058 -0.296,-0.14 -0.478,-0.193c-0.134,-0.039 -0.234,-0.094 -0.363,-0.147c-0.291,-0.119 -0.56,-0.268 -0.864,-0.349c-0.3,-0.08 -0.59,-0.195 -0.86,-0.348c-0.135,-0.076 -0.223,-0.068 -0.357,-0.144c-0.807,-0.455 -0.878,-0.23 -1.697,-0.686c-0.131,-0.073 -0.233,-0.107 -0.376,-0.152c-0.171,-0.054 -0.265,-0.125 -0.437,-0.177c-0.023,-0.007 -0.876,-0.605 -3.329,-1.345c-0.297,-0.09 -0.587,-0.204 -0.862,-0.348c-0.129,-0.068 -0.22,-0.105 -0.36,-0.145c-0.179,-0.051 -0.265,-0.127 -0.444,-0.179c-0.155,-0.045 -0.268,-0.09 -0.411,-0.166c-0.269,-0.144 -0.568,-0.219 -0.847,-0.342c-1.446,-0.639 -3.19,-1.443 -4.734,-1.854c-0.271,-0.072 0.203,0.243 -0.048,0.118c-0.289,-0.143 0.367,-0.07 0.088,-0.218c-0.358,-0.19 0.321,0.276 -0.035,0.087Zm-5.729,14.181c0.662,-1.931 0.735,-1.889 0.824,-2.041c0.129,-0.221 0.081,-0.439 0.253,-0.627c0.18,-0.197 -0.591,-1.129 0.431,-1.067c1.143,0.069 1.883,1.051 2.047,1.111c0.211,0.078 0.433,-0.227 0.652,-0.174c0.158,0.038 0.142,0.316 0.282,0.399c0.262,0.157 0.613,0.125 0.869,0.29c0.14,0.09 0.094,0.373 0.25,0.431c0.198,0.074 0.421,-0.158 0.626,-0.106c0.136,0.034 0.151,0.243 0.261,0.329c0.35,0.274 0.677,0.632 1.108,0.742c0.247,0.063 0.462,-0.322 0.713,-0.275c0.166,0.031 0.068,0.403 0.229,0.453c0.208,0.063 0.412,-0.244 0.623,-0.193c0.162,0.039 0.143,0.323 0.285,0.411c0.258,0.16 0.601,0.142 0.86,0.301c0.136,0.083 0.12,0.344 0.272,0.391c0.197,0.061 0.406,-0.166 0.607,-0.12c0.142,0.033 0.172,0.242 0.289,0.329c0.354,0.264 0.683,0.619 1.114,0.719c0.253,0.059 0.465,-0.339 0.721,-0.294c0.168,0.029 0.063,0.411 0.227,0.46c0.21,0.063 0.413,-0.253 0.626,-0.203c0.163,0.038 0.141,0.327 0.283,0.416c0.257,0.161 0.601,0.14 0.859,0.299c0.138,0.085 0.119,0.353 0.274,0.401c0.186,0.057 0.378,-0.189 0.567,-0.142c0.161,0.04 0.189,0.289 0.335,0.367c0.818,0.44 0.913,0.159 1.745,0.608c0.118,0.064 0.152,0.241 0.276,0.294c0.288,0.124 0.614,0.135 0.916,0.219c0.3,0.084 0.622,0.127 0.891,0.284c0.134,0.078 0.11,0.341 0.258,0.387c0.192,0.061 0.399,-0.175 0.593,-0.119c0.154,0.044 0.161,0.294 0.298,0.376c0.26,0.157 0.59,0.168 0.854,0.318c0.13,0.074 0.154,0.29 0.296,0.336c0.185,0.059 0.392,-0.105 0.579,-0.054c0.136,0.037 0.17,0.244 0.301,0.296c0.293,0.117 0.62,0.117 0.926,0.194c0.302,0.076 0.626,0.111 0.895,0.267c0.136,0.079 0.102,0.353 0.253,0.399c0.196,0.06 0.402,-0.191 0.599,-0.136c0.156,0.044 0.157,0.302 0.295,0.386c0.259,0.158 0.592,0.162 0.855,0.314c0.131,0.076 0.147,0.302 0.291,0.348c0.187,0.06 0.395,-0.12 0.585,-0.069c0.138,0.037 0.167,0.252 0.298,0.305c0.293,0.118 0.621,0.114 0.927,0.19c0.302,0.075 0.628,0.104 0.897,0.261c0.141,0.082 0.103,0.367 0.259,0.414c0.195,0.058 0.391,-0.211 0.589,-0.161c0.162,0.041 0.172,0.304 0.316,0.388c0.25,0.146 0.547,0.192 0.825,0.275c0.213,0.064 0.49,0.007 0.646,0.166c0.097,0.098 -0.162,0.291 -0.084,0.404c0.118,0.171 0.486,0.096 0.569,0.286c0.136,0.308 -0.293,0.532 -0.349,0.864c-0.127,0.751 -0.474,1.173 -0.479,1.185c-0.112,0.304 -0.3,0.55 -0.351,0.87c-0.022,0.135 -0.304,1.25 -0.639,1.582c-0.859,0.851 -1.828,0.134 -1.997,0.028c-0.132,-0.082 -0.132,-0.301 -0.262,-0.385c-0.258,-0.166 -0.599,-0.17 -0.857,-0.336c-0.132,-0.085 -0.117,-0.34 -0.267,-0.388c-0.196,-0.062 -0.408,0.159 -0.608,0.11c-0.142,-0.035 -0.173,-0.242 -0.29,-0.329c-0.354,-0.265 -0.683,-0.62 -1.113,-0.72c-0.253,-0.059 -0.466,0.339 -0.722,0.295c-0.168,-0.029 -0.065,-0.409 -0.229,-0.458c-0.209,-0.063 -0.411,0.251 -0.624,0.201c-0.163,-0.039 -0.142,-0.326 -0.285,-0.416c-0.257,-0.161 -0.602,-0.14 -0.86,-0.301c-0.137,-0.085 -0.115,-0.354 -0.268,-0.402c-0.199,-0.061 -0.408,0.178 -0.611,0.132c-0.144,-0.033 -0.17,-0.247 -0.287,-0.338c-0.35,-0.271 -0.672,-0.641 -1.104,-0.739c-0.261,-0.059 -0.47,0.364 -0.734,0.322c-0.172,-0.027 -0.055,-0.424 -0.222,-0.473c-0.213,-0.064 -0.414,0.268 -0.631,0.219c-0.166,-0.037 -0.138,-0.334 -0.281,-0.424c-0.257,-0.162 -0.605,-0.135 -0.861,-0.297c-0.138,-0.087 -0.106,-0.367 -0.262,-0.414c-0.202,-0.061 -0.411,0.193 -0.617,0.147c-0.146,-0.032 -0.168,-0.253 -0.285,-0.346c-0.347,-0.278 -0.662,-0.663 -1.096,-0.759c-0.268,-0.059 -0.473,0.391 -0.745,0.351c-0.177,-0.026 -0.044,-0.44 -0.215,-0.491c-0.218,-0.065 -0.416,0.286 -0.639,0.238c-0.168,-0.036 -0.133,-0.341 -0.277,-0.435c-0.255,-0.164 -0.606,-0.133 -0.86,-0.299c-0.14,-0.092 -0.1,-0.378 -0.259,-0.431c-0.193,-0.065 -0.397,0.201 -0.592,0.146c-0.159,-0.044 -0.158,-0.308 -0.298,-0.394c-0.258,-0.159 -0.592,-0.161 -0.854,-0.314c-0.131,-0.077 -0.143,-0.309 -0.288,-0.354c-0.189,-0.06 -0.398,0.128 -0.589,0.078c-0.139,-0.036 -0.164,-0.257 -0.297,-0.311c-0.292,-0.119 -0.622,-0.112 -0.928,-0.187c-0.302,-0.074 -0.63,-0.1 -0.897,-0.26c-0.139,-0.083 -0.088,-0.375 -0.243,-0.422c-0.201,-0.061 -0.406,0.219 -0.609,0.165c-0.16,-0.043 -0.149,-0.316 -0.289,-0.404c-0.257,-0.161 -0.594,-0.158 -0.853,-0.314c-0.133,-0.08 -0.148,-0.295 -0.284,-0.372c-0.268,-0.15 -0.588,-0.178 -0.878,-0.28c-1.507,-0.531 -1.424,-0.703 -2.951,-1.099c-1.966,-0.509 -2.772,-1.094 -3.033,-1.254c-0.209,-0.128 0.14,0.212 -0.006,0.014c-0.179,-0.243 0.261,-0.41 0.287,-0.71c0.027,-0.314 0.326,-0.561 0.353,-0.875Zm-3.207,7.939c0.234,-0.419 0.119,-0.453 0.349,-0.863c0.065,-0.116 0.087,-0.214 0.137,-0.338c0.173,-0.437 0.973,-2.409 0.973,-2.409c0,0 2.165,0.893 2.348,0.948c0.201,0.06 0.306,0.153 0.509,0.206c0.138,0.036 0.225,0.09 0.357,0.144c0.293,0.12 0.556,0.276 0.864,0.349c0.303,0.072 0.596,0.185 0.862,0.348c0.142,0.087 0.196,0.096 0.355,0.143c0.206,0.062 0.258,0.136 0.467,0.189c0.162,0.041 0.248,0.068 0.389,0.157c0.256,0.162 0.585,0.181 0.843,0.34c0.135,0.083 0.235,0.072 0.373,0.151c0.267,0.152 0.561,0.244 0.852,0.344c1.169,0.402 1.114,0.458 1.215,0.491c0.181,0.059 0.297,0.142 0.481,0.194c0.133,0.038 0.232,0.095 0.36,0.146c0.292,0.116 0.559,0.269 0.863,0.349c0.301,0.079 0.591,0.196 0.862,0.348c0.133,0.074 0.223,0.07 0.356,0.144c0.27,0.15 0.563,0.246 0.856,0.346c1.075,0.366 1.015,0.441 2.068,0.835c1.588,0.594 1.563,0.624 1.696,0.685c1.889,0.869 1.925,0.76 2.085,0.842c0.127,0.065 0.231,0.078 0.357,0.144c1.232,0.647 1.289,0.445 2.55,1.03c0.123,0.057 0.233,0.096 0.359,0.145c1.62,0.63 1.594,0.628 1.726,0.697c0.128,0.067 0.229,0.076 0.357,0.144c1.22,0.65 1.29,0.439 2.55,1.03c0.124,0.058 0.233,0.095 0.36,0.146c0.292,0.115 0.56,0.266 0.863,0.349c0.3,0.082 0.586,0.204 0.862,0.348c0.136,0.071 0.232,0.108 0.378,0.153c0.176,0.054 0.261,0.124 0.437,0.177c0.157,0.047 0.273,0.088 0.416,0.168c1.247,0.702 1.32,0.482 1.406,0.568c0.101,0.102 0.029,-0.072 0.113,0.045c0.113,0.159 0.349,0.141 0.349,0.141c0,0 -0.766,1.973 -0.848,2.1c-0.087,0.135 -0.068,0.237 -0.151,0.374c-0.159,0.262 -0.164,0.604 -0.344,0.852c-0.143,0.197 -0.048,0.384 -0.223,0.552c-0.171,0.164 -0.089,0.478 -0.26,0.642c-0.507,-0.117 -0.675,-0.004 -1.178,-0.121c-0.085,-0.02 -0.472,-0.109 -1.007,-0.414c-0.328,-0.187 -0.569,-0.511 -0.909,-0.677c-0.283,-0.138 -0.631,-0.089 -0.919,-0.215c-0.125,-0.055 -0.154,-0.237 -0.272,-0.307c-0.266,-0.158 -0.567,-0.249 -0.855,-0.363c-3.505,-1.39 -3.565,-1.214 -3.865,-1.346c-0.128,-0.056 -0.148,-0.251 -0.267,-0.324c-0.264,-0.162 -0.567,-0.25 -0.855,-0.364c-3.527,-1.385 -3.572,-1.194 -3.871,-1.327c-0.131,-0.058 -0.14,-0.265 -0.261,-0.342c-0.046,-0.029 -0.048,-0.025 -3.778,-1.538c-3.329,-1.35 -3.394,-1.135 -5.052,-1.911c-4.148,-1.941 -4.935,-1.775 -8.983,-3.914l0.297,-0.735Z" style="fill:#f60;fill-opacity:0.99;"/><path d="M563.647,401.068c-5.419,4.257 -9.86,6.055 -19.372,8.523c-1.522,0.395 -1.545,0.193 -9.007,0.931c-1.249,0.124 -3.719,0.309 -11.041,-0.644c-6.84,-0.89 -18.606,-5.107 -27.773,-13.497c-2.773,-2.538 -24.702,-20.207 -19.398,-56.832c3.559,-24.574 23.988,-47.386 52.233,-48.657c5.628,-0.253 18.784,-0.81 33.059,8.582c1.259,0.828 6.736,5.402 6.825,5.421c0.136,0.029 1.465,0.311 1.685,-0.441c0.087,-0.297 -0.115,-0.301 -0.123,-3.871c-0.012,-5.003 -0.556,-7.039 2.536,-7.103c0.116,-0.002 24.843,-0.004 25.008,0.001c3.307,0.098 2.681,2.02 2.681,7.101c0,105.629 0.011,105.637 -0.089,105.902c-0.587,1.549 -0.915,1.381 -2.581,1.413c-0.21,0.004 -24.926,0.004 -25.028,0.001c-2.941,-0.09 -2.488,-1.513 -2.461,-7.316c0.013,-2.697 0.134,-2.697 0.083,-2.926c-0.082,-0.368 -0.393,-0.669 -0.701,-0.888c-1.104,-0.785 -6.084,3.729 -6.322,4.144l-0.214,0.155Zm-50.87,-30.101c0.763,0.995 2.073,3.282 6.449,6.671c12.84,9.945 30.954,7.76 40.758,-0.408c8.832,-7.358 13.23,-17.362 11.639,-32.69c-0.263,-2.535 -2.158,-10.234 -6.219,-15.066c-2.991,-3.559 -5.123,-6.217 -12.255,-9.628c-4.155,-1.987 -25.522,-8.194 -39.533,9.013c-9.823,12.064 -9.248,31.163 -1.052,41.894l0.214,0.214Z" style="fill-opacity:0.99;"/><path d="M96.771,400.133c-3.166,-3.69 -35.536,-39.285 -40.088,-44.904c-6.114,-7.546 -12.284,-13.721 -13.113,-15.755c-0.338,-0.829 -0.288,-0.861 -0.288,-17.893c-0,-5.259 -0.679,-6.956 2.992,-6.979c4.253,-0.027 4.232,0.037 12.997,-0.172c1.28,-0.031 11.703,-0.279 15.968,-1.047c16.676,-3.003 20.06,-11.142 21.363,-13.649c3.616,-6.956 6.257,-25.58 -4.994,-34.583c-1.293,-1.035 -7.371,-5.898 -19.371,-7.305c-16.86,-1.976 -36.992,-0.114 -49.962,-0.058c-20.847,0.091 -21.02,0.21 -21.707,-0.486c-0.734,-0.743 -0.546,-3.683 -0.546,-5.722c-0,-26.213 -0.04,-26.25 0.276,-26.987c0.551,-1.287 3.758,-0.971 5.976,-0.971c31.633,0 49.129,-0.834 58.991,0.071c10.129,0.93 10.127,0.827 11.002,0.946c9.851,1.347 13.84,2.575 15.009,2.935c5.469,1.683 14.259,3.912 22.482,12.53c1.758,1.842 16.852,15.443 18.518,41.476c1.668,26.075 -12.134,41.625 -12.63,42.278c-9.818,12.948 -22.262,15.373 -27.504,18.479c-1.375,0.815 -2.77,1.565 -1.211,3.477c1.9,2.329 47.698,57.582 48.631,58.575c0.138,0.147 2.149,2.288 -0.184,2.519c-0.697,0.069 -1.401,-0.041 -2.101,-0.056c-6.495,-0.135 -32.412,0.268 -34.008,-0.257c-0.696,-0.229 -0.962,-0.316 -6.497,-6.464Z" style="fill-opacity:1;"/><path d="M675.623,366.157c0.43,-0.003 0.246,-0.411 0.685,-0.414c0.765,-0.005 0.436,0.426 0.483,0.407c0.234,-0.097 0.189,-0.471 0.261,-0.713c1.492,-4.966 1.547,-4.932 3.387,-9.794c9.24,-24.413 8.814,-24.549 17.97,-49.012c5.06,-13.518 5.006,-15.062 6.935,-15.738c0.497,-0.174 20.314,0.463 23.931,0.626c6.656,0.3 6.768,0.145 7.357,0.766c0.699,0.736 0.389,1.118 -2.603,8.193c-9.99,23.624 -58.609,140.362 -59.254,141.897c-5.837,13.873 -5.621,14.149 -6.771,14.754c-0.854,0.45 -0.922,0.35 -26.732,0.359c-3.849,0.001 -6.233,0.733 -4.906,-2.873c1.442,-3.919 13.195,-35.849 18.146,-48.942c2.817,-7.448 2.841,-7.769 2.616,-9.058c-0.222,-1.275 -28.657,-70.27 -35.147,-85.913c-0.603,-1.453 -7.474,-18.016 -7.515,-18.166c-0.042,-0.153 -0.385,-1.407 0.858,-1.792c0.122,-0.038 0.126,-0.027 22.948,-0.027c5.451,0 6.481,-0.547 7.832,2.935c2.137,5.507 26.069,63.755 29.518,72.507Z" style="fill-opacity:1;"/><path d="M389.712,405.089c-1.876,-3.121 -3.651,-8.551 -8.565,-20.456c-3.589,-8.696 -33.686,-84.029 -33.719,-84.114c-3.189,-8.397 -4.036,-8.726 -2.903,-9.57c0.365,-0.272 0.419,-0.233 22.749,-0.233c7.199,-0 8.129,-0.453 9.519,2.103c0.314,0.578 24.907,52.401 27.07,56.959c2.754,5.803 2.555,6.163 3.34,6.219c1.045,0.074 0.982,-0.203 1.446,-1.125c0.626,-1.244 0.58,-1.252 1.18,-2.505c0.834,-1.744 9.363,-19.587 10.37,-21.822c0.33,-0.733 18.115,-37.705 18.216,-37.89c1.304,-2.372 3.037,-1.939 6.86,-1.939c24.469,-0 24.502,-0.026 24.825,0.174c0.896,0.555 0.121,2.448 0.041,2.643c-0.858,2.099 -34.73,88.722 -42.055,106.974c-1.667,4.155 -1.508,5.211 -4.81,5.253c-0.192,0.002 -30.638,-0.056 -31.003,-0.062c-2.016,-0.03 -1.937,-0.379 -2.56,-0.608Z" style="fill-opacity:1;"/><path d="M189.772,290.317c0.057,0.513 0.251,0.485 0.253,2.265c0.012,8.879 0.145,108.099 -0.007,110.982c-0.122,2.302 -1.677,2.195 -2.742,2.204c-0.059,0.001 -27.945,0.001 -28.006,-0c-3.37,-0.03 -2.747,-1.736 -2.747,-7.188c0,-107.704 -0.009,-107.71 0.071,-107.925c0.592,-1.604 0.961,-1.386 2.674,-1.401c0.056,-0 27.955,-0 28.011,0c0.931,0.008 0.959,0.013 1.042,0.026c1.201,0.195 1.351,0.964 1.452,1.036Z" style="fill-opacity:1;"/><path d="M0.77,406.177c-0.215,-0.898 -0.385,-0.869 -0.391,-2.597c-0,-0.069 -0,-88.931 0,-88.998c0.004,-0.749 -0.251,-2.641 1.909,-2.867c0.191,-0.02 12.799,-0.044 14.979,0.016c11.711,0.324 15.822,9.726 16.686,13.913c0.55,2.666 0.484,2.687 0.484,71.936c-0,7.543 0.467,9.037 -2.141,9.252c-0.149,0.012 -29.773,0.028 -30.054,-0.009c-1.021,-0.135 -1.365,-0.6 -1.472,-0.647Z" style="fill-opacity:1;"/><path d="M156.016,433.568c0.184,-1.47 0.164,-1.453 0.573,-2.863c3.557,-8.605 5.246,-8.845 5.606,-9.204l0.995,-1.011c1.83,-1.566 2.423,-1.486 3.08,-1.917l1.16,-0.676c1.384,-0.395 1.362,-0.392 2.761,-0.602l0.202,-0.409c3.111,-0.947 4.503,-0.98 7.759,0.026l1.159,0.45c1.432,0.151 1.414,0.138 2.814,0.522c0.132,0.076 0.003,0.202 1.345,1.35l1.83,0.308c0.086,0.074 0.08,0.069 1.081,0.926l0.988,1.018l0.997,1.01c0.743,0.884 0.721,0.805 1.113,1.967c1.501,2.295 1.292,2.357 2.13,5.003c1.798,5.684 1.319,9.703 -1.393,18.085l-0.876,1.084l-0.794,0.157c-1.731,1.348 -1.729,1.3 -3.064,3.06l-0.146,0.808l-1.061,0.923l-0.885,0.223c-4.712,3.339 -13.689,2.108 -15.198,1.023l1.001,-0.015c-1.882,-1.054 -1.831,-1.106 -4.012,-1.106l-0.084,-0.849c-0.251,-0.031 -1.851,-0.228 -2.947,-1.142l-1.001,-1.011c-0.743,-0.897 -0.715,-0.838 -1.131,-1.964l-0.844,-1.078c-0.763,-0.882 -0.733,-0.803 -1.192,-1.935c-0.921,-1.413 -0.779,-1.409 -1.026,-3.043l-0.385,-0.219c-0.519,-1.804 -0.55,-8.183 -0.553,-8.896Z" style="fill:#f60;fill-opacity:0.99;"/><path d="M594.266,513.078c1.661,0.393 1.652,0.369 3.227,1.036c3.649,1.544 8,0.468 9.118,-2.488c0.395,-1.046 0.559,-1.293 -0.416,-1.818c-0.255,-0.137 -0.593,-0.122 -0.868,-0.032c-0.08,0.026 -2.024,1.794 -6.008,1.433c-10.742,-0.973 -12.156,-16.347 -4.099,-20.718c5.392,-2.925 9.87,0.248 9.991,0.275c1.731,0.384 2.089,-1.436 5.064,-1.194c2.533,0.206 2.093,1.705 2.093,11.009c-0,10.578 0.538,16.352 -7.12,18.912c-2.545,0.851 -10.89,1.123 -14.102,-3.829c-0.588,-0.906 -1.001,-0.91 -0.539,-1.899c0.328,-0.703 1.561,-0.667 3.659,-0.686l3.368,-7.965c0.03,0.016 2.499,1.896 5.769,0.82c5.941,-1.955 4.376,-12.638 -3.152,-11.495c-4.935,0.749 -5.915,6.964 -3.526,9.776c0.276,0.325 0.633,0.575 0.909,0.9l-3.368,7.965Z" style="fill-opacity:0.98;"/><path d="M282.777,497.073c0.715,0.972 2.441,2.625 2.211,6.484c-0.17,2.847 -2.05,7.047 -7.755,7.697c-1.677,0.191 -8.794,0.439 -9.756,-0.067c-0.895,-0.471 -0.907,-2.388 -0.908,-2.609c-0.012,-1.996 -0.144,-24.302 0.042,-24.946c0.525,-1.817 1.92,-1.925 5.638,-1.684c2.679,0.174 10.48,0.348 10.607,7.622c0.052,2.975 -2.409,4.171 -1.686,6.07c0.097,0.255 0.406,0.53 0.449,0.569c0.545,0.486 0.605,0.372 1.157,0.864l-8.493,9.031c0.971,-0.128 3.062,-0.202 4.21,-1.29c2.356,-2.231 0.103,-6.18 -4.221,-6.235c-0.864,-0.011 -2.007,0.214 -2.123,1.988c-0.017,0.258 -0.025,3.744 0.036,4.032c0.291,1.392 0.782,0.985 2.098,1.505l8.493,-9.031l-6.006,-5.149c0.066,-0.164 0.237,-0.271 0.303,-0.435c1.058,-2.616 -1.593,-4.617 -3.818,-3.95c-0.322,0.097 -1.562,0.469 -1.106,4.057c0.326,2.57 3.206,1.689 4.102,0.957c0.211,-0.172 0.308,-0.457 0.519,-0.629l6.006,5.149Z" style="fill-opacity:0.97;"/><path d="M568.604,510.088c-1.013,-0.755 -1.01,-0.746 -1.094,-0.815c-2.924,-2.402 -5.325,-7.288 -3.445,-12.767c1.33,-3.876 5.384,-6.271 7.248,-6.786c12.64,-3.492 20.5,12.236 10.126,20.093c-5.515,4.177 -11.928,0.759 -12.835,0.275l10.141,-5.022c0.149,-0.186 0.376,-0.301 0.525,-0.487c1.35,-1.687 1.36,-3.658 1.362,-3.996c0.04,-7.832 -10.745,-8.231 -11.665,-1.046c-0.776,6.057 5.208,8.978 9.29,6.023c0.188,-0.136 0.301,-0.358 0.489,-0.494l-10.141,5.022Z" style="fill-opacity:0.98;"/><path d="M430.965,510.05c-0.236,-0.149 -0.483,-0.28 -0.719,-0.429c-5.142,-3.233 -6.139,-12.797 -0.653,-17.664c5.549,-4.924 17.011,-3.386 18.748,6.614c0.758,4.363 -1.463,3.49 -5.067,3.485c-10.849,-0.016 -11.137,-0.111 -11.527,0.726c-0.434,0.931 0.672,2.386 1.435,2.91c4.455,3.056 7.71,0.084 9.086,-0.143c1.205,-0.199 3.965,0.732 3.991,2.034c0.043,2.195 -7.966,7.086 -15.293,2.468l8.161,-15.975c-0.303,-0.037 -0.597,-0.128 -0.9,-0.165c-4.825,-0.588 -8.304,3.948 -3.98,3.94c7.369,-0.014 7.468,0.075 7.886,-0.398c1.349,-1.528 -1.58,-2.81 -1.832,-2.921c-0.384,-0.168 -0.789,-0.288 -1.173,-0.457l-8.161,15.975Z" style="fill-opacity:0.97;"/><path d="M623.748,505.17c0.276,0.198 3.001,3.029 7.493,1.33c0.714,-0.27 2.417,-1.67 4.799,-0.455c3.06,1.56 0.245,3.347 -0.511,3.89c-5.741,4.133 -13.752,0.968 -15.781,-1.746c-7.077,-9.468 0.587,-21.663 12.464,-18.395c2.017,0.555 7.016,3.489 7.432,9.757c0.208,3.135 -1.522,2.488 -8.371,2.515c-4.82,0.019 -7.536,-0.169 -8.09,0.429c-0.358,0.387 -0.323,1.025 -0.318,1.118c0.008,0.143 0.063,0.112 0.882,1.557l0.893,-10.156c-0.256,0.328 -0.661,0.519 -0.917,0.847c-0.639,0.818 0.101,1.758 0.463,1.879c0.539,0.18 0.56,-0.074 7.105,0.093c3.594,0.092 2.446,-2.405 0.044,-3.38c-3.733,-1.516 -6.406,0.421 -6.694,0.561l-0.893,10.156Z" style="fill-opacity:0.97;"/><path d="M206.68,492.116c0.793,0.846 2.69,2.294 3.454,6.489c0.787,4.322 -1.47,3.487 -5.86,3.495c-0.718,0.001 -0.711,-0.067 -8.976,-0.058c-4.655,0.006 0.31,7.224 6.875,4.318c0.495,-0.219 2.043,-1.705 5.199,0.097c0.635,0.363 0.679,0.401 0.687,1.132c0.021,1.82 -4.199,4.124 -7.761,4.342c-6.219,0.38 -11.773,-3.646 -12.419,-9.286c-0.332,-2.899 -0.327,-4.893 1.428,-8.043c1.055,-1.893 3.447,-4.421 6.955,-5.078c6.821,-1.276 10.255,2.465 10.417,2.591l-3.711,2.87c-0.203,-0.093 -3.093,-2.064 -6.74,-0.493c-2.133,0.919 -3.385,3.412 0.024,3.348c6.552,-0.124 6.565,0.092 7.113,-0.06c0.159,-0.044 1.828,-0.507 0.588,-1.981c-0.274,-0.326 -0.71,-0.488 -0.984,-0.814l3.711,-2.87Z" style="fill-opacity:0.98;"/><path d="M291.767,508.179c-0.3,-0.444 -0.573,-0.905 -0.873,-1.348c-3.361,-4.973 -1.548,-11.295 1.323,-14.303c5.172,-5.42 17.952,-4.838 19.36,7.026c0.385,3.242 -2.024,2.475 -6.304,2.499c-9.41,0.053 -9.579,-0.186 -10.104,0.429c-1.21,1.418 0.886,2.95 1.098,3.106c4.38,3.202 7.69,0.278 9.009,0.006c1.625,-0.335 3.652,0.928 3.841,1.137c0.892,0.984 -0.266,2.073 -0.396,2.195c-4.599,4.324 -12.242,4.001 -16.956,-0.746l4.878,-13.157c-0.254,0.329 -0.663,0.517 -0.917,0.846c-0.052,0.067 -1.009,1.956 1.505,1.992c3.033,0.042 3.008,-0.088 6.062,-0.022c3.537,0.077 2.444,-2.383 0.034,-3.368c-3.751,-1.533 -6.449,0.437 -6.683,0.552l-4.878,13.157Z" style="fill-opacity:0.97;"/><path d="M685.58,510.11c-7.533,-5.495 -4.995,-13.567 -2.549,-16.708c5.367,-6.892 18.025,-5.421 19.898,5.234c0.735,4.185 -1.414,3.412 -5.656,3.42c-0.725,0.001 -7.988,0.013 -9.064,0.057c-3.613,0.148 -1.29,3.934 1.994,4.735c4.577,1.117 5.556,-2.636 9.325,-0.713c0.99,0.505 1.36,0.34 1.365,1.455c0.006,1.416 -0.373,1.291 -1.536,2.096c-6.505,4.502 -12.593,1.037 -13.777,0.422l10.331,-15.065c-0.241,-0.115 -3.054,-2.088 -6.699,-0.591c-2.161,0.887 -3.605,3.474 0.043,3.383c3.043,-0.076 3.03,0.081 6.063,0.023c2.488,-0.047 1.596,-1.926 1.536,-2.002c-0.257,-0.326 -0.687,-0.486 -0.943,-0.813l-10.331,15.065Z" style="fill-opacity:0.97;"/><path d="M673.682,491.121c2.506,2.89 2.402,3.177 2.404,13.461c0.001,5.008 0.67,6.918 -2.812,6.884c-3.885,-0.039 -2.08,-2.17 -2.72,-11.906c-0.038,-0.581 -0.104,-4.822 -3.249,-5.211c-5.949,-0.736 -5.177,9.483 -5.181,11.234c-0.007,3.995 0.633,5.969 -2.848,5.882c-1.709,-0.043 -2.5,-0.387 -2.571,-2.886c-0.088,-3.079 0.1,-13.796 0.121,-14.995c0.154,-8.796 -1.345,-12.257 2.424,-12.41c3.268,-0.132 2.873,1.149 2.873,4.409c-0,4.344 -0.289,4.445 0.201,4.963c1.14,1.206 3.528,-1.941 7.983,-1.154c1.913,0.338 1.819,0.584 3.374,1.731Z" style="fill-opacity:0.98;"/><path d="M335.824,492.071c5.172,4.768 11.007,8.87 7.652,15.618c-2.266,4.557 -10.755,6.895 -15.912,0.668c-2.156,-2.603 0.066,-3.626 0.608,-3.939c1.967,-1.136 2.326,-1.282 3.914,0.34c0.312,0.319 2.909,2.972 5.441,1.23c5.301,-3.649 -7.877,-8.964 -9.72,-15.265c-2.292,-7.839 7.874,-12.623 14.185,-6.833c1.976,1.813 1.31,2.627 -0.381,4.103c-2.77,2.418 -3.485,-1.301 -6.326,-1.213c-1.51,0.047 -2.497,1.555 -1.888,2.752c0.778,1.529 1.049,1.298 2.429,2.54Z" style="fill-opacity:0.98;"/><path d="M351.804,508.982c-1.151,-1.558 -1.314,-1.48 -1.771,-3.342c-0.789,-3.215 -0.689,-13.609 -0.647,-14.047c0.033,-0.346 0.261,-2.712 3.875,-1.96c2.817,0.586 0.975,6.358 1.89,12.964c0.07,0.502 0.709,5.12 5.061,3.812c4.341,-1.305 2.402,-11.241 2.862,-14.853c0.412,-3.237 4.54,-1.74 4.809,-1.491c1.23,1.142 0.285,13.467 0.281,13.503c-0.113,1.032 -0.969,8.827 -9.913,8.372c-4.579,-0.233 -6.445,-2.956 -6.447,-2.958Z" style="fill-opacity:0.98;"/><path d="M502.772,508.25c-0.702,-1.448 -0.708,-1.434 -0.758,-1.564c-1.194,-3.102 -1.24,-14.705 -0.733,-16.101c0.563,-1.552 3.871,-0.9 3.95,-0.876c2.39,0.744 0.405,7.857 1.731,13.95c0.843,3.873 6.321,4.033 7.3,-0.081c0.853,-3.585 -0.077,-11.301 0.794,-13.144c0.562,-1.189 3.53,-0.919 4.108,-0.623c0.909,0.467 1.319,0.677 0.775,12.748c-0.421,9.332 -8.522,9.372 -8.641,9.379c-6.09,0.342 -8.477,-3.629 -8.525,-3.688Z" style="fill-opacity:0.98;"/><path d="M376.732,509.085c-0.846,-1.07 -0.841,-1.063 -0.914,-1.156c-0.484,-0.611 -3.57,-4.507 -2.66,-9.369c1.648,-8.804 12.424,-11.603 18.897,-7.632c4.531,2.78 1.282,4.269 1.069,4.402c-2.414,1.512 -4.287,-0.226 -4.946,-0.52c-2.364,-1.056 -7.193,-0.558 -8.812,2.82c-2.448,5.106 1.592,10.042 6.933,9.105c1.787,-0.314 3.718,-1.454 3.856,-1.498c1.619,-0.513 4.141,1.188 4.179,2.34c0.057,1.758 -4.86,4.913 -10.101,4.302c-5.376,-0.627 -7.416,-2.734 -7.502,-2.794Z" style="fill-opacity:0.98;"/><path d="M406.759,505.082c1.65,1.085 1.556,1.311 3.489,1.651c4.892,0.86 5.608,-3.386 9.378,-0.573c3.347,2.497 -2.964,5.377 -6.319,5.729c-2.3,0.242 -7.368,-0.359 -9.822,-2.56c-8.507,-7.632 -2.607,-22.189 10.82,-19.934c3.412,0.573 9.425,3.987 4.903,6.067c-3.329,1.531 -3.259,-0.908 -6.92,-1.12c-6.263,-0.363 -9.018,5.685 -5.957,10.191c0.13,0.191 0.296,0.357 0.426,0.549Z" style="fill-opacity:0.98;"/><path d="M550.925,511.06c-0.124,-0.224 -0.427,-0.312 -0.551,-0.536c-0.394,-0.71 -0.209,-0.772 -0.284,-19.942c-0.016,-3.991 -1.863,-2.778 -3.773,-3.185c-2.18,-0.464 -1.456,-4.344 -1.029,-4.805c0.84,-0.908 2.214,-0.731 8.986,-0.731c4.933,-0 6.801,-0.659 6.828,2.722c0.036,4.426 -2.999,2.14 -4.594,3.327c-0.91,0.677 -0.764,1.167 -0.764,14.671c0,7.277 0.543,8.78 -2.475,8.881c-2.096,0.07 -2.151,-0.346 -2.343,-0.402Z" style="fill-opacity:0.98;"/><path d="M247.865,510.095c-0.103,0.062 -2.723,2.185 -6.625,1.829c-2.745,-0.251 -6.655,-2.343 -5.812,-4.28c0.087,-0.199 1.449,-2.366 2.854,-2.339c0.726,0.014 4.235,2.587 5.823,1.1c0.178,-0.166 1.539,-1.441 -0.731,-2.954c-1.892,-1.261 -10.166,-4.466 -7.061,-10.847c2.949,-6.06 14.308,-2.493 12.588,0.801c-0.144,0.276 -1.344,2.573 -3.466,1.776c-0.408,-0.153 -0.762,-0.424 -1.162,-0.596c-2.677,-1.146 -4.322,0.772 -2.252,2.281c1.677,1.223 10.24,3.753 7.535,10.829c-0.523,1.369 -0.736,1.23 -1.69,2.401Z" style="fill-opacity:0.98;"/><path d="M482.658,510.036c-1.975,1.403 -1.949,1.555 -4.345,1.844c-3.924,0.474 -10.295,-2 -7.147,-5.397c2.816,-3.039 4.036,1.212 7.182,0.274c0.888,-0.265 2.009,-1.883 -0.013,-3.253c-2.394,-1.621 -10.26,-4.573 -7.096,-10.943c3.096,-6.233 15.85,-2.311 11.8,1.796c-0.763,0.774 -0.697,1.001 -1.786,1.008c-0.934,0.006 -2.748,-1.343 -4.084,-1.139c-1.114,0.17 -1.448,1.511 -0.765,2.253c1.212,1.318 9.75,3.431 8.417,10.013c-0.424,2.093 -0.692,1.987 -2.162,3.543Z" style="fill-opacity:0.98;"/><path d="M454.717,500.083c-0.142,-0.172 -0.306,-0.326 -0.448,-0.498c-5.511,-6.649 2.437,-13.236 9.963,-8.941c2.767,1.579 0.93,3.428 0.721,3.638c-1.483,1.493 -1.771,1.191 -3.721,0.396c-0.258,-0.105 -3.444,-1.403 -3.36,0.907c0.083,2.285 9.569,3.467 8.867,10.031c-1.086,10.163 -17.511,5.96 -14.067,1.28c2.065,-2.805 4.565,-0.599 4.701,-0.534c2.399,1.151 3.797,0.019 3.898,-0.783c0.239,-1.902 -1.361,-1.939 -6.553,-5.497Z" style="fill-opacity:0.98;"/><path d="M184.722,507.426c0.201,2.935 0.489,4.007 -2.45,4.039c-0.719,0.008 -7.447,0.082 -8.99,-0.007c-2.241,-0.129 -2.247,-1.631 -2.258,-2.873c-0.016,-2.004 -0.192,-23.813 0.057,-25.045c0.463,-2.285 4.939,-2.359 5.447,-0.018c0.154,0.711 -0.009,20.625 0.105,21.003c0.51,1.692 0.884,1.552 2.652,1.627c0.24,0.01 0.235,-0.054 2.999,0.002c0.163,0.003 1.568,0.031 1.998,0.419c0.238,0.215 0.203,0.639 0.44,0.853Z" style="fill-opacity:0.99;"/><path d="M488.779,496.601c-0.118,-0.362 -0.084,-0.761 -0.202,-1.123c-0.3,-0.92 -1.379,-1.363 -1.623,-2.836c-0.301,-1.815 -0.14,-1.881 1.063,-3.29c1.102,-1.292 0.789,-3.747 1.014,-4.82c1.21,-5.778 9.502,-3.99 8.894,-0.97c-0.274,1.36 -0.418,1.386 -1.718,1.83c-0.268,0.091 -2.536,0.867 -1.706,3.097c0.51,1.369 2.873,0.571 3.103,3.057c0.241,2.612 -2.023,2.816 -2.358,2.989c-1.354,0.697 -0.859,3.585 -0.933,14.046c-0.005,0.715 0.231,2.647 -2.055,2.863c-2.887,0.274 -3.398,-0.826 -3.525,-1.9c-0.171,-1.441 0.026,-11.909 0.046,-12.944Z" style="fill-opacity:0.97;"/><path d="M221.829,489.08c1.697,0.832 2.656,1.539 2.394,3.493c-0.335,2.497 -2.996,1.06 -3.144,3.992c-0.086,1.712 0.167,12.942 -0.185,13.864c-0.549,1.435 -4.582,1.41 -5.141,-0.039c-0.631,-1.638 0.495,-14.346 -0.769,-15.52c-1.578,-1.465 -2.399,-1.203 -2.126,-3.341c0.314,-2.463 2.323,-1.442 2.685,-3.914c0.132,-0.899 -0.279,-4.411 0.45,-5.234c1.056,-1.193 4.924,-1.521 5.064,1.217c0.025,0.488 -0.097,4.266 0.253,4.964c0.109,0.218 0.409,0.299 0.518,0.517Z" style="fill-opacity:0.96;"/><path d="M649.845,482.063c0.079,0.205 0.283,0.345 0.361,0.55c0.525,1.363 -0.191,5.235 0.735,6.232c0.998,1.075 2.425,0.518 2.659,2.696c0.187,1.743 0.078,1.908 -1.444,2.773c-0.309,0.175 -0.63,0.021 -1.358,0.981c-0.886,1.169 0.12,13.851 -0.633,15.227c-0.618,1.13 -4.671,1.837 -5.087,-0.913c-0.105,-0.691 0.107,-13.334 -0.158,-13.929c-0.633,-1.426 -2.873,-1.383 -2.619,-4.096c0.227,-2.429 2.482,-1.653 2.73,-4.024c0.142,-1.359 -0.577,-5.295 1.288,-5.844c0.768,-0.226 1.798,-0.147 1.954,-0.135c1.084,0.083 1.416,0.434 1.572,0.482Z" style="fill-opacity:0.99;"/><path d="M529.925,511.119c-0.359,0.074 -0.32,0.292 -1.656,0.342c-3.63,0.138 -3.256,-1.252 -3.257,-4.88c-0.001,-24.064 -0.063,-24.191 0.5,-24.813c0.605,-0.668 4.469,-1.232 5.012,0.733c0.258,0.933 0.112,23.998 0.099,26.085c-0.006,0.941 -0.008,0.958 -0.019,1.04c-0.149,1.139 -0.599,1.313 -0.681,1.492Z" style="fill-opacity:1;"/><path d="M716.823,493.269c-0.559,0.3 -0.486,0.425 -1.417,0.761c-1.646,0.595 -3.379,0.637 -3.448,7.545c-0.082,8.314 0.26,8.471 -0.424,9.216c-0.865,0.941 -4.743,1.434 -5.037,-1.232c-0.14,-1.27 0.018,-1.268 -0.018,-15.977c-0.003,-1.149 -0.524,-4.298 2.795,-4.003c1.328,0.118 2.256,1.471 3.84,0.719c0.099,-0.047 0.327,-0.351 1.182,-0.657c1.721,-0.617 4.441,-0.676 2.879,2.894c-0.109,0.248 -0.242,0.485 -0.351,0.734Z" style="fill-opacity:0.96;"/><path d="M230.713,489.744c-0.225,0.232 -0.149,0.664 -0.374,0.896c-0.668,0.687 -2.43,1.089 -3.008,-1.074c-0.251,-0.941 -0.747,-6.865 -0.723,-6.937c0.674,-2.069 4.516,-1.886 4.873,-0.097c0.071,0.358 0.02,0.361 -0.767,7.213Z" style="fill-opacity:0.98;"/></g></svg>